<svg width="143" height="40" viewBox="0 0 143 40" fill="none" xmlns="http://www.w3.org/2000/svg">
<path fill-rule="evenodd" clip-rule="evenodd" d="M24.9902 39.3726C33.623 37.1558 40 29.3225 40 20C40 10.6775 33.623 2.84424 24.9902 0.627441C23.3936 0.217896 21.7236 0 20 0C8.95508 0 0 8.95447 0 20C0 31.0455 8.95508 40 20 40C21.7236 40 23.3936 39.7821 24.9902 39.3726ZM5 20C15.835 20 24.6582 11.3824 24.9902 0.627441V39.3726C24.6582 28.6176 15.835 20 5 20Z" fill="white"/>
<path d="M51.6 26H61.64V24.06H53.88V19.5H61.2V17.58H53.88V13.44H61.64V11.5H51.6V26ZM66.1558 11.5H64.0758V26H66.1558V11.5ZM73.4986 24.48C71.7986 24.48 70.5786 23.26 70.3586 21.26H78.5586C78.7786 17.76 76.8386 15.04 73.5186 15.04C70.4586 15.04 68.2186 17.26 68.2186 20.6C68.2186 23.72 70.1186 26.26 73.5786 26.26C76.2986 26.26 77.9386 24.62 78.4186 22.84H76.3186C75.8586 23.86 75.0186 24.48 73.4986 24.48ZM73.4986 16.74C75.1986 16.74 76.3386 18.04 76.3986 19.62H70.3986C70.6986 17.56 71.8786 16.74 73.4986 16.74ZM85.1569 15.04C81.9769 15.04 79.9569 17.46 79.9569 20.64C79.9569 23.9 81.8969 26.26 85.0169 26.26C87.3969 26.26 89.4769 24.68 89.9169 22.42H87.8169C87.5169 23.7 86.3969 24.48 85.0569 24.48C83.5569 24.48 82.1769 23.28 82.1769 20.62C82.1769 18 83.5569 16.82 85.0569 16.82C86.4169 16.82 87.5169 17.66 87.7369 18.88H89.8169C89.4969 16.78 87.6169 15.04 85.1569 15.04ZM92.2888 15.24H90.6488V16.82H92.2888V23.24C92.2888 25.46 92.7688 26 94.9488 26H96.4688V24.34H95.5888C94.5488 24.34 94.3688 24.06 94.3688 22.96V16.82H96.4888V15.24H94.3688V12.48H92.2888V15.24ZM104.109 15.22C103.929 15.2 103.709 15.2 103.529 15.2C102.169 15.22 101.109 15.92 100.549 17.14V15.24H98.5094V26H100.589V20.36C100.589 18.1 101.429 17.32 103.029 17.32C103.369 17.32 103.729 17.34 104.109 17.38V15.22ZM107.04 20.66C107.04 17.94 108.5 16.8 110.06 16.8C111.66 16.8 113.1 18 113.1 20.66C113.1 23.28 111.66 24.5 110.06 24.5C108.5 24.5 107.04 23.3 107.04 20.66ZM110.06 15.04C107.52 15.04 104.84 16.76 104.84 20.66C104.84 24.54 107.52 26.26 110.06 26.26C112.62 26.26 115.3 24.54 115.3 20.66C115.3 16.76 112.62 15.04 110.06 15.04ZM119.457 11.5H117.377V26H119.457V11.5ZM128.899 26H130.999V15.24H128.919V21.08C128.919 23.22 128.079 24.5 126.319 24.5C124.439 24.5 124.179 23.06 124.179 21.52V15.24H122.099V22.08C122.099 24.7 123.079 26.26 125.619 26.26C127.239 26.26 128.279 25.58 128.899 24.48V26ZM142.503 15.24H140.203L137.683 18.76L135.203 15.24H132.743L136.443 20.5L132.503 26H134.843L137.583 22.12L140.323 26H142.803L138.823 20.38L142.503 15.24Z" fill="white"/>
</svg>
