<svg width="304" height="245" viewBox="0 0 304 245" fill="none" xmlns="http://www.w3.org/2000/svg">
<mask id="mask0_281_657" style="mask-type:alpha" maskUnits="userSpaceOnUse" x="33" y="40" width="146" height="146">
<path fill-rule="evenodd" clip-rule="evenodd" d="M72.6287 48.9497L147.085 103.596L59.1569 168.131C43.5534 154.888 33.6514 135.133 33.6514 113.064C33.6514 85.1701 49.4714 60.971 72.6287 48.9497ZM78.6626 46.1635C87.0524 42.7514 96.2287 40.8716 105.844 40.8716C135.771 40.8716 161.444 59.081 172.389 85.0244L152 99.989L78.6626 46.1635ZM174.502 90.6884L156.915 103.596L177.802 118.926C177.957 116.993 178.037 115.038 178.037 113.064C178.037 105.254 176.796 97.7332 174.502 90.6884ZM176.965 125.527L152 107.204L63.9244 171.846C75.7422 180.289 90.213 185.257 105.844 185.257C141.465 185.257 171.06 159.458 176.965 125.527ZM118.862 113.064C118.862 120.254 113.034 126.083 105.844 126.083C98.6542 126.083 92.8257 120.254 92.8257 113.064C92.8257 105.874 98.6542 100.046 105.844 100.046C113.034 100.046 118.862 105.874 118.862 113.064Z" fill="#FF66FF"/>
</mask>
<g mask="url(#mask0_281_657)">
<path d="M109.395 185.257C86.1201 158.837 95.9836 135.949 105.846 113.061M105.846 113.061L105.846 113.06M105.846 113.061L105.845 113.063M105.846 113.061L105.846 113.067M105.846 113.061L105.847 113.059M105.846 113.06L105.847 113.059M105.846 113.06L105.845 113.063M105.846 113.06L105.848 113.057M105.846 113.06L105.846 113.063L105.845 113.063M105.846 113.06V113.057M105.846 113.06C105.847 113.066 105.849 113.071 105.849 113.077M105.846 113.06C100.372 88.749 94.8963 64.4391 60.5405 56.7461M105.847 113.059L105.848 113.057M105.847 113.059C105.847 113.056 105.848 113.054 105.849 113.051M105.847 113.059L105.846 113.057M105.847 113.059C105.847 113.056 105.846 113.053 105.845 113.051M105.848 113.057C115.708 90.1725 125.565 67.2873 102.294 40.8716M105.848 113.057C114.088 89.5403 122.324 66.0233 97.2674 41.2952M105.848 113.057L105.849 113.051M114.423 184.833C89.3625 160.102 97.6042 136.583 105.845 113.063M105.845 113.063C99.2649 137.1 92.6842 161.137 119.408 184.06M105.845 113.063L105.846 113.067M105.845 113.063C105.845 113.068 105.844 113.073 105.844 113.077M105.845 113.063C106.145 137.983 106.446 162.903 138.453 177.572M105.845 113.063L105.847 113.064M105.845 113.063C113.003 136.936 120.158 160.808 154.97 166.086M105.845 113.063L105.844 113.062M105.845 113.063C114.65 136.378 123.455 159.693 158.549 162.53M105.845 113.063L105.848 113.067M105.845 113.063C122.093 131.96 138.342 150.858 172.29 141.521M105.845 113.063L105.845 113.064M105.845 113.063L105.843 113.063M105.845 113.063L105.847 113.065M105.845 113.063L105.851 113.065M105.845 113.063L105.843 113.062M105.845 113.063C105.843 113.062 105.84 113.061 105.838 113.06M105.845 113.063L105.842 113.064M105.849 113.051C112.428 89.0188 119.001 64.9869 92.2821 42.0683M105.849 113.051C110.736 88.6183 115.617 64.1863 87.3637 43.1874M124.329 182.941C96.0757 161.942 100.957 137.51 105.844 113.077M105.844 113.077C105.844 113.074 105.845 113.071 105.846 113.067M105.844 113.077C102.673 137.791 99.5081 162.505 129.157 181.482M105.844 113.077C105.845 113.075 105.846 113.072 105.848 113.07M105.844 113.077C91.4417 133.41 77.0448 153.744 94.314 184.419M105.844 113.077L105.846 113.072M105.844 113.077C92.8951 134.365 79.9515 155.654 99.3185 185.05M105.846 113.067C104.407 137.946 102.969 162.824 133.874 179.689M105.846 113.067L105.848 113.067M105.846 113.067L105.843 113.067M105.846 113.067L105.848 113.066M105.846 113.067C105.843 113.068 105.84 113.069 105.838 113.069M105.846 113.057C109.017 88.3413 112.184 63.6252 82.5334 44.6469M105.846 113.057L105.846 113.055M105.846 113.057L105.845 113.051M105.846 113.055C107.285 88.1789 108.72 63.3035 77.8182 46.44M105.846 113.055C105.547 88.139 105.243 63.224 73.2396 48.5572M142.874 175.14C109.921 162.74 107.884 137.902 105.847 113.064M105.847 113.064C105.848 113.068 105.849 113.072 105.849 113.077M105.847 113.064C116.256 135.707 126.665 158.351 161.871 158.733M105.847 113.064C105.849 113.068 105.851 113.072 105.853 113.076M105.847 113.064C123.373 130.781 140.899 148.499 174.113 136.816M105.847 113.064C105.85 113.067 105.854 113.069 105.857 113.072M105.847 113.064L105.847 113.065M105.847 113.064L105.844 113.062M105.847 113.064C130.661 115.371 155.476 117.677 173.41 87.3786M105.847 113.064C105.851 113.064 105.856 113.064 105.861 113.063M105.847 113.064L105.849 113.064M105.847 113.064L105.843 113.062M105.847 113.064L105.843 113.063M105.847 113.064L105.851 113.064M105.845 113.051C103.808 88.2176 101.766 63.3867 68.8193 50.9888M105.845 113.051C102.081 88.4201 98.3115 63.7921 64.5803 53.7226M147.115 172.405C113.383 162.336 109.614 137.708 105.849 113.077M105.849 113.077C111.323 137.385 116.801 161.69 151.153 169.382M105.844 113.062L105.844 113.061M105.844 113.062L105.843 113.058M105.844 113.062L105.843 113.06M105.844 113.062C105.849 113.066 105.853 113.069 105.857 113.072M105.844 113.062C86.0241 97.9574 66.203 82.854 34.94 99.0443M105.844 113.062L105.841 113.062M105.844 113.062C105.85 113.062 105.855 113.063 105.861 113.063M105.844 113.062L105.843 113.063M105.844 113.061L105.843 113.058M105.844 113.061C105.843 113.059 105.841 113.055 105.84 113.053M105.844 113.061L105.842 113.059M105.843 113.058C98.687 89.1893 91.5274 65.3225 56.7211 60.0451M105.843 113.058C97.0394 89.7465 88.2325 66.4371 53.1428 63.6006M105.843 113.058L105.84 113.053M105.84 113.053C95.4328 90.414 85.0207 67.7792 49.8208 67.3974M105.84 113.053C93.8789 91.1951 81.9132 69.3416 46.7723 71.4161M164.921 154.713C129.78 156.788 117.815 134.934 105.853 113.076M105.853 113.076C105.851 113.073 105.85 113.07 105.848 113.067M105.853 113.076C119.31 134.046 132.771 155.012 167.682 150.491M105.848 113.067C120.737 133.05 135.627 153.033 170.143 146.087M105.848 113.067L105.851 113.067M105.848 113.067L105.848 113.066M105.848 113.067C82.857 122.68 59.866 132.293 58.2558 167.463M105.848 113.067L105.849 113.066M105.848 113.067L105.846 113.069M105.848 113.067L105.844 113.07M105.848 113.067C87.531 129.964 69.2152 146.861 79.7309 180.461M105.848 113.067L105.846 113.072M105.843 113.06L105.842 113.059M105.843 113.06C105.841 113.058 105.839 113.056 105.837 113.055M105.842 113.059C92.3842 92.0875 78.9234 71.1179 44.0103 75.639M105.842 113.059L105.841 113.058M105.842 113.059L105.837 113.055M105.841 113.058C90.9532 93.0762 76.0629 73.0982 41.5508 80.0436M105.841 113.058C89.5956 94.1634 73.3479 75.2725 39.4043 84.6085M105.837 113.055C88.3146 95.3407 70.7889 77.6322 37.5812 89.3125M105.837 113.055C87.1216 96.6062 68.4032 80.1632 36.0911 94.1315M175.604 131.996C143.292 145.964 124.573 129.521 105.857 113.072M105.857 113.072C125.675 128.175 145.495 143.273 176.754 127.084M105.845 113.064L105.843 113.063M105.845 113.064L105.842 113.064M105.843 113.063L105.841 113.062M105.843 113.063C105.841 113.062 105.838 113.061 105.835 113.06M105.843 113.063L105.842 113.064M105.843 113.063L105.841 113.063M105.843 113.063C80.951 114.233 56.0599 115.404 42.518 147.902M105.843 113.063C105.841 113.063 105.839 113.063 105.837 113.063M105.841 113.062L105.835 113.06M105.847 113.065L105.851 113.065M105.847 113.065C105.851 113.066 105.856 113.068 105.86 113.069M105.847 113.065L105.848 113.066M105.847 113.065L105.849 113.064M105.835 113.06C82.6224 104.004 59.4091 94.9549 33.8231 119.132M105.86 113.069C105.857 113.068 105.854 113.067 105.851 113.065M105.86 113.069C129.648 120.483 153.436 127.892 177.274 101.988M105.851 113.065C130.101 118.803 154.352 124.539 176.327 97.0323M105.851 113.065L105.851 113.067M105.851 113.065L105.848 113.066M105.851 113.065L105.852 113.066M105.851 113.065L105.849 113.064M105.851 113.065L105.849 113.066M105.851 113.065L105.852 113.064M105.851 113.065L105.851 113.064M105.842 113.064L105.841 113.063M105.842 113.064C105.839 113.063 105.837 113.063 105.834 113.063M105.842 113.064C81.2521 109.032 56.6623 105.004 36.661 133.975M105.842 113.064L105.837 113.063M105.841 113.063C82.0511 105.649 58.2605 98.2375 34.4216 124.143M105.841 113.063L105.839 113.063C81.5904 107.326 57.3421 101.593 35.3687 129.098M105.841 113.063L105.834 113.063M105.834 113.063C80.9242 112.493 56.0158 111.929 40.2419 143.399M105.861 113.063C130.75 111.894 155.638 110.72 169.178 78.2257M177.562 122.106C147.504 140.439 126.677 126.753 105.851 113.067M105.851 113.067L105.849 113.066M105.851 113.067C127.581 125.267 149.312 137.466 178.018 117.081M105.851 113.067C128.378 123.721 150.908 134.374 178.123 112.037M105.851 113.067L105.852 113.066M105.851 113.067L105.849 113.068M105.849 113.066L105.848 113.066M105.849 113.066C105.848 113.068 105.847 113.071 105.846 113.072M105.849 113.066L105.848 113.07M105.849 113.066L105.849 113.068M105.848 113.066L105.843 113.067M105.843 113.062C85.0187 99.3775 64.1927 85.6966 34.1374 104.027M105.843 113.062C84.1147 100.863 62.3852 88.6684 33.6817 109.051M105.843 113.062L105.838 113.06M105.838 113.06C83.312 102.408 60.7875 91.7611 33.5774 114.095M177.875 106.997C152.289 131.175 129.075 122.125 105.862 113.07M105.862 113.07C105.859 113.068 105.857 113.067 105.854 113.066M105.862 113.07C105.859 113.068 105.856 113.067 105.852 113.066M105.854 113.066L105.852 113.066M105.854 113.066L105.857 113.066M105.854 113.066L105.856 113.065M105.854 113.066L105.854 113.065M105.852 113.066L105.854 113.064M105.852 113.066L105.852 113.064M166.597 73.8954C155.359 107.247 130.623 110.161 105.881 113.063M105.881 113.063C105.878 113.063 105.875 113.064 105.872 113.064M105.881 113.063C105.875 113.063 105.868 113.064 105.862 113.064M105.872 113.064C105.868 113.065 105.864 113.065 105.86 113.065M105.872 113.064C130.779 113.634 155.684 114.194 171.456 82.7278M105.872 113.064C105.869 113.064 105.865 113.064 105.862 113.064M105.86 113.065L105.857 113.066M105.86 113.065L105.856 113.065M105.857 113.066C130.448 117.097 155.038 121.126 175.04 92.1547M105.843 113.067C81.0947 115.97 56.3472 118.877 45.106 152.238M105.843 113.067C81.3573 117.689 56.8728 122.315 47.9861 156.379M105.843 113.067L105.838 113.069M163.716 69.7528C154.83 103.816 130.347 108.442 105.862 113.064M105.862 113.064L105.856 113.065M105.862 113.064L105.859 113.064M105.862 113.064L105.857 113.064M105.856 113.065L105.857 113.064M105.856 113.065L105.854 113.065M105.856 113.065L105.855 113.063M160.554 65.8217C154.065 100.423 129.963 106.745 105.859 113.064M105.859 113.064L105.857 113.064M105.857 113.064L105.854 113.065M105.857 113.064L105.86 113.062M105.857 113.064L105.855 113.063M105.854 113.065L105.854 113.064M105.838 113.069C81.7356 119.388 57.6368 125.711 51.1484 160.31M105.838 113.069C82.235 121.053 58.6358 129.043 54.5767 164.01M157.124 62.1201C153.065 97.0875 129.466 105.076 105.863 113.061M105.863 113.061L105.861 113.061M105.863 113.061C128.851 103.449 151.836 93.8338 153.446 58.6683M105.863 113.061L105.86 113.062M105.861 113.061C105.859 113.062 105.857 113.063 105.855 113.063M105.861 113.061C128.124 101.87 150.383 90.6743 149.536 55.4813M105.861 113.061L105.86 113.062M105.855 113.063L105.854 113.064M105.855 113.063L105.86 113.062M105.855 113.063C127.284 100.345 148.712 87.625 145.412 52.5738M105.854 113.064L105.852 113.064M105.854 113.064C126.344 98.8814 146.833 84.6975 141.096 49.9614M105.854 113.064C105.855 113.062 105.858 113.059 105.86 113.057M105.854 113.064L105.853 113.063M105.852 113.064L105.853 113.063M105.852 113.064C105.854 113.061 105.855 113.057 105.857 113.054M105.852 113.064L105.851 113.064M105.846 113.069L105.844 113.07M105.846 113.069C105.844 113.07 105.842 113.072 105.84 113.074M105.844 113.07C83.5808 124.262 61.3198 135.457 62.1667 170.651M105.844 113.07C84.4156 125.788 62.9897 138.509 66.2895 173.558M105.844 113.07L105.84 113.074M105.84 113.074C85.352 127.254 64.8691 141.439 70.6055 176.17M105.84 113.074C86.391 128.649 66.9474 144.228 75.0925 178.474M136.608 47.656C144.753 81.903 125.309 97.4816 105.86 113.057M105.86 113.057C105.858 113.059 105.856 113.06 105.854 113.062M105.86 113.057C124.175 96.1629 142.485 79.2658 131.971 45.6703M105.86 113.057C105.858 113.059 105.855 113.061 105.853 113.063M105.86 113.057C122.952 94.9262 140.039 76.7934 127.207 44.0128M105.854 113.062L105.853 113.063M105.854 113.062C121.641 93.7811 137.426 74.4996 122.337 42.6911M105.853 113.063C120.257 92.7275 134.659 72.3916 117.388 41.7125M105.849 113.068L105.848 113.07M105.849 113.068C94.4157 135.211 82.9833 157.353 104.357 185.33M105.848 113.07L105.846 113.072M105.846 113.072C88.7532 131.204 71.6637 149.337 84.4966 182.119M105.846 113.072C90.0596 132.352 74.2765 151.634 89.3649 183.44M112.381 41.0812C131.748 70.477 118.805 91.7663 105.857 113.054M105.857 113.054C105.855 113.057 105.853 113.06 105.851 113.064M105.857 113.054C117.289 90.9149 128.715 68.7745 107.345 40.8013M105.837 113.063C81.027 110.757 56.2187 108.457 38.2881 138.75" stroke="#FF66FF" stroke-width="0.5"/>
</g>
<path d="M142.077 107.272C141.552 103.956 140.581 100.788 139.23 97.8315L135.536 95.1205C137.979 99.1537 139.623 103.724 140.249 108.613L142.077 107.272Z" fill="#FF66FF"/>
<path d="M130.556 115.728C130.649 114.853 130.697 113.964 130.697 113.064C130.697 99.3381 119.57 88.2109 105.844 88.2109C92.1179 88.2109 80.9907 99.3381 80.9907 113.064C80.9907 125.123 89.579 135.176 100.973 137.44L103.246 135.771C91.848 134.482 82.9907 124.807 82.9907 113.064C82.9907 100.443 93.2225 90.2109 105.844 90.2109C118.465 90.2109 128.697 100.443 128.697 113.064C128.697 114.544 128.556 115.991 128.288 117.392L130.556 115.728Z" fill="#FF66FF"/>
<path d="M122.02 129.207L127.578 125.128C124.111 131.361 118.04 135.947 110.836 137.416L116.37 133.354C118.464 132.266 120.368 130.863 122.02 129.207Z" fill="#FF66FF"/>
<path d="M97.9741 146.856C100.503 147.442 103.137 147.752 105.844 147.752C124.118 147.752 139.091 133.622 140.434 115.692L142.516 114.164C141.934 133.918 125.738 149.752 105.844 149.752C102.394 149.752 99.0549 149.276 95.8894 148.386L97.9741 146.856Z" fill="#FF66FF"/>
<path d="M91.2784 144.555C79.3972 139.051 71.156 127.02 71.156 113.064C71.156 93.9066 86.6864 78.3762 105.844 78.3762C108.673 78.3762 111.422 78.7147 114.054 79.3535L110.375 76.6532C108.89 76.4704 107.378 76.3762 105.844 76.3762C85.5818 76.3762 69.156 92.802 69.156 113.064C69.156 127.435 77.4184 139.876 89.452 145.896L91.2784 144.555Z" fill="#FF66FF"/>
<path d="M80.7766 152.263C67.8728 143.994 59.321 129.528 59.321 113.064C59.321 90.1866 75.8342 71.1658 97.5915 67.271L95.4057 65.6668C73.6241 70.4418 57.321 89.8491 57.321 113.064C57.321 129.96 65.9562 144.838 79.0538 153.527L80.7766 152.263Z" fill="#FF66FF"/>
<path d="M70.7009 159.658C56.5995 149.005 47.4863 132.099 47.4863 113.064C47.4863 88.005 63.2812 66.6348 85.4585 58.366L83.5431 56.9602C61.2469 65.8305 45.4863 87.6069 45.4863 113.064C45.4863 132.536 54.7071 149.855 69.0203 160.891L70.7009 159.658Z" fill="#FF66FF"/>
<path d="M74.0763 164.395L75.8194 163.116C84.5914 168.389 94.8636 171.422 105.844 171.422C137.055 171.422 162.544 146.92 164.124 116.102L166.041 117.509C163.766 148.768 137.684 173.422 105.844 173.422C94.188 173.422 83.3036 170.118 74.0763 164.395Z" fill="#FF66FF"/>
<path d="M61.6861 166.274C46.1516 153.509 36.2432 134.148 36.2432 112.472C36.2432 85.3117 51.8009 61.7846 74.491 50.3165L72.6287 48.9497C49.4714 60.971 33.6514 85.1701 33.6514 113.064C33.6514 135.133 43.5534 154.888 59.1569 168.131L61.6861 166.274Z" fill="#FF66FF"/>
<path d="M63.9244 171.846L66.5435 169.924C77.7271 177.589 91.2619 182.073 105.844 182.073C140.446 182.073 169.15 156.824 174.537 123.745L176.965 125.527C172.028 153.899 150.527 176.585 122.79 183.257H160.404C165.174 183.257 168.551 183.253 171.11 182.909C173.611 182.572 175.03 181.945 176.061 180.914C177.091 179.883 177.719 178.464 178.055 175.963C178.399 173.404 178.404 170.027 178.404 165.257V126.583L180.404 128.051V165.257C180.404 174.685 180.404 179.399 177.475 182.328C174.546 185.257 169.832 185.257 160.404 185.257H51.2844C49.202 185.257 47.3495 185.257 45.6955 185.225L48.3829 183.253C49.2889 183.257 50.2542 183.257 51.2844 183.257H88.898C79.7766 181.063 71.3296 177.137 63.9244 171.846Z" fill="#FF66FF"/>
<path d="M39.3132 182.695C37.5723 182.33 36.4704 181.757 35.6276 180.914C34.5966 179.883 33.969 178.464 33.6327 175.963C33.2887 173.404 33.2844 170.027 33.2844 165.257V60.8716C33.2844 56.101 33.2887 52.7243 33.6327 50.1654C33.969 47.664 34.5966 46.2457 35.6276 45.2147C36.6585 44.1838 38.0768 43.5562 40.5782 43.2199C43.1371 42.8758 46.5138 42.8716 51.2844 42.8716H64.3473L61.6223 40.8716H51.2844C41.8563 40.8716 37.1423 40.8716 34.2134 43.8005C31.2844 46.7294 31.2844 51.4435 31.2844 60.8716V165.257C31.2844 174.685 31.2844 179.399 34.2134 182.328C35.0576 183.172 36.0502 183.773 37.2613 184.201L39.3132 182.695Z" fill="#FF66FF"/>
<path d="M32.5305 187.673C32.4508 187.663 32.3719 187.653 32.2938 187.642C29.7924 187.306 28.3741 186.678 27.3431 185.648C26.3122 184.617 25.6846 183.198 25.3483 180.697C25.0042 178.138 25 174.761 25 169.991V33.7706H51.9472L48.7221 31.4036H25.0008C25.0046 29.9589 25.0246 28.9539 25.1286 28.1801C25.2452 27.3127 25.4335 27.0408 25.5858 26.8885C25.738 26.7363 26.0099 26.548 26.8774 26.4314C27.8024 26.307 29.0578 26.3027 31 26.3027H41.7722L39.0472 24.3027H31C30.4713 24.3027 29.9796 24.3027 29.5218 24.306L32.2609 22.5161C33.073 21.9854 33.8391 21.4849 34.5647 21.0128L32.8415 19.7481C32.3535 20.0664 31.8492 20.3959 31.3272 20.7371L24.9851 24.8813L24.9918 24.8916C24.6817 25.0434 24.4116 25.2342 24.1716 25.4743C23.0971 26.5488 23.0074 28.224 23 31.4036V169.991C23 179.419 23 184.133 25.9289 187.062C27.061 188.194 28.4596 188.888 30.2941 189.314L32.5305 187.673Z" fill="#FF66FF"/>
<path d="M59.6881 197.469C59.6881 198.122 57.8335 198.652 55.5459 198.652C53.2582 198.652 51.4037 198.122 51.4037 197.469C51.4037 196.815 53.2582 196.285 55.5459 196.285C57.8335 196.285 59.6881 196.815 59.6881 197.469Z" fill="#FF66FF"/>
<path d="M237.211 197.469C237.211 198.122 235.357 198.652 233.069 198.652C230.781 198.652 228.927 198.122 228.927 197.469C228.927 196.815 230.781 196.285 233.069 196.285C235.357 196.285 237.211 196.815 237.211 197.469Z" fill="#FF66FF"/>
<path fill-rule="evenodd" clip-rule="evenodd" d="M39.2145 189.982C40.3846 189.991 41.6435 189.991 43 189.991H46.6697V196.57C46.6697 200.341 46.6697 202.227 47.8412 203.398C49.0128 204.57 50.8984 204.57 54.6697 204.57H56.422C60.1932 204.57 62.0788 204.57 63.2504 203.398C64.422 202.227 64.422 200.341 64.422 196.57V189.991H224.193V196.57C224.193 200.341 224.193 202.227 225.364 203.398C226.536 204.57 228.421 204.57 232.193 204.57H233.945C237.716 204.57 239.602 204.57 240.773 203.398C241.945 202.227 241.945 200.341 241.945 196.57V189.991H252.596V189.986C256.094 189.965 258.097 189.84 259.719 189.109C260.482 188.766 261.193 188.331 261.838 187.819L260.151 186.58C259.758 186.851 259.339 187.087 258.898 187.286C258.222 187.59 257.367 187.784 255.977 187.886C255.051 187.954 253.958 187.978 252.596 187.986V181.036L250.229 179.299V187.991H43C42.6346 187.991 42.2773 187.991 41.928 187.99L39.2145 189.982ZM48.6697 190.001H62.422V196.57C62.422 198.512 62.4177 199.767 62.2934 200.692C62.1767 201.56 61.9884 201.832 61.8362 201.984C61.6839 202.136 61.412 202.325 60.5446 202.441C59.6196 202.566 58.3641 202.57 56.422 202.57H54.6697C52.7275 202.57 51.4721 202.566 50.5471 202.441C49.6796 202.325 49.4077 202.136 49.2555 201.984C49.1032 201.832 48.9149 201.56 48.7983 200.692C48.6739 199.767 48.6697 198.512 48.6697 196.57V190.001ZM226.193 190.001H239.945V196.57C239.945 198.512 239.941 199.767 239.816 200.692C239.7 201.56 239.511 201.832 239.359 201.984C239.207 202.136 238.935 202.325 238.068 202.441C237.143 202.566 235.887 202.57 233.945 202.57H232.193C230.25 202.57 228.995 202.566 228.07 202.441C227.203 202.325 226.931 202.136 226.778 201.984C226.626 201.832 226.438 201.56 226.321 200.692C226.197 199.767 226.193 198.512 226.193 196.57V190.001Z" fill="#FF66FF"/>
<path fill-rule="evenodd" clip-rule="evenodd" d="M250.229 172.084L252.596 173.821V33.7706H263.615V34.9255L263.6 34.9087V79.2556L263.615 79.2514L263.615 174.605C263.615 177.146 263.613 178.943 263.51 180.353C263.471 180.877 263.42 181.326 263.354 181.717L265.118 183.012C265.615 181.187 265.615 178.752 265.615 174.605V165.136L265.62 165.136C266.239 165.134 266.826 165.131 267.385 165.124C267.663 165.121 267.935 165.117 268.2 165.112C268.978 165.097 269.698 165.073 270.368 165.036C270.837 165.009 271.281 164.976 271.703 164.933C273.726 164.731 275.206 164.327 276.448 163.523L276.477 163.504C277.629 162.75 278.613 161.766 279.367 160.614C280.184 159.367 280.592 157.88 280.796 155.841C281 153.802 281 151.211 281 147.758V133.365C281 125.679 281 121.829 279.637 118.329C278.275 114.829 275.671 111.992 270.474 106.33L265.615 101.035V78.4208C265.77 78.3294 265.921 78.2324 266.068 78.1296C267.036 77.4547 267.877 76.6139 268.552 75.646C270.349 73.0686 270.349 69.4372 270.349 62.1743V57.873C270.349 50.0597 270.349 46.1531 268.947 42.6093C268.231 40.7976 267.182 39.1672 265.615 37.2448L265.614 31.4036C265.607 28.224 265.518 26.5488 264.443 25.4743C264.284 25.315 264.111 25.1774 263.923 25.0585L261.998 26.4714C262.662 26.5882 262.893 26.7527 263.029 26.8885C263.181 27.0408 263.369 27.3127 263.486 28.1801C263.59 28.9539 263.61 29.9589 263.614 31.4036H255.278L250.229 35.1087V172.084ZM265.615 75.949V40.5811C266.25 41.5315 266.721 42.4181 267.087 43.3447C268.316 46.452 268.349 49.9046 268.349 57.873V62.1743C268.349 65.8489 268.346 68.4491 268.135 70.4582C267.928 72.4319 267.537 73.6043 266.911 74.5021C266.539 75.0362 266.103 75.5219 265.615 75.949ZM268.128 163.113C267.962 163.116 267.793 163.119 267.62 163.121C267.151 163.127 266.656 163.131 266.134 163.134C265.965 163.135 265.794 163.135 265.62 163.136V103.999L268.996 107.677C274.302 113.459 276.579 115.985 277.774 119.054C278.968 122.123 279 125.524 279 133.372V147.758C279 151.253 278.998 153.726 278.806 155.642C278.617 157.525 278.262 158.651 277.694 159.519C277.128 160.383 276.401 161.129 275.553 161.716C275.496 161.755 275.439 161.793 275.382 161.831C274.602 162.341 273.612 162.681 272.053 162.881C271.878 162.903 271.695 162.924 271.504 162.943C271.058 162.988 270.578 163.023 270.059 163.049C269.469 163.08 268.829 163.1 268.128 163.113Z" fill="#FF66FF"/>
<path d="M180.404 79.1422V60.8716C180.404 51.4435 180.404 46.7294 177.475 43.8005C174.546 40.8716 169.832 40.8716 160.404 40.8716H71.4524L74.1774 42.8716H88.898C85.3788 43.7181 81.96 44.8225 78.6626 46.1635L80.6048 47.589C88.4298 44.5429 96.9417 42.8716 105.844 42.8716C135.09 42.8716 160.122 60.9094 170.424 86.4668L172.389 85.0244C163.579 64.1406 145.224 48.2682 122.79 42.8716H160.404C165.174 42.8716 168.551 42.8758 171.11 43.2199C173.611 43.5562 175.03 44.1838 176.061 45.2147C177.091 46.2457 177.719 47.664 178.055 50.1654C178.399 52.7243 178.404 56.101 178.404 60.8716V80.6101L180.404 79.1422Z" fill="#FF66FF"/>
<path d="M242.222 33.7706H61.7773L58.5522 31.4036H245.448L242.222 33.7706Z" fill="#FF66FF"/>
<path d="M252.397 26.3027H51.6023L48.8773 24.3027H255.122L252.397 26.3027Z" fill="#FF66FF"/>
<path d="M256.998 22.9264L256.345 22.5005C248.877 17.6253 245.304 15.3046 241.289 14.1102C237.274 12.9158 233.014 12.9063 224.095 12.9063H64.5349C55.6081 12.9063 51.3442 12.9158 47.3262 14.1122C44.97 14.8138 42.7662 15.9033 39.8393 17.6693L38.095 16.3891C41.4546 14.3236 44.0033 13.0149 46.7555 12.1954C51.0853 10.9062 55.6556 10.9062 64.3431 10.9063H224.287C232.967 10.9062 237.533 10.9062 241.859 12.1932C246.186 13.4803 250.01 15.9764 257.278 20.7211L258.72 21.6623L256.998 22.9264Z" fill="#FF66FF"/>
<path d="M178.404 87.8248L180.404 86.3569V120.836L178.404 119.368V87.8248Z" fill="#FF66FF"/>
<path d="M174.502 90.6884L172.446 92.1976C174.396 98.6126 175.445 105.42 175.445 112.472C175.445 114.023 175.394 115.561 175.295 117.086L177.802 118.926C177.957 116.993 178.037 115.038 178.037 113.064C178.037 105.254 176.796 97.7332 174.502 90.6884Z" fill="#FF66FF"/>
<path d="M166.143 110.369C165.958 106.168 165.344 102.079 164.344 98.1441L162.599 99.4244C163.33 102.475 163.821 105.618 164.051 108.834L166.143 110.369Z" fill="#FF66FF"/>
<path d="M160.842 93.4997C152.799 70.8922 131.212 54.7065 105.844 54.7065C101.223 54.7065 96.7281 55.2436 92.4172 56.2586L90.3223 54.7211C95.2751 53.4069 100.478 52.7065 105.844 52.7065C131.87 52.7065 154.048 69.1785 162.523 92.2658L160.842 93.4997Z" fill="#FF66FF"/>
<path d="M152.484 99.6336C146.659 79.368 127.983 64.5413 105.844 64.5413C105.146 64.5413 104.452 64.556 103.762 64.5851L106.432 66.5449C126.808 66.7974 144.03 80.1494 150.064 98.5683L152 99.989L152.484 99.6336Z" fill="#FF66FF"/>
<path d="M154.183 108.806C154.305 110.209 154.367 111.629 154.367 113.064C154.367 139.863 132.642 161.587 105.844 161.587C98.2152 161.587 90.9976 159.827 84.5753 156.69L86.4076 155.345C92.3221 158.068 98.9056 159.587 105.844 159.587C131.538 159.587 152.367 138.758 152.367 113.064C152.367 111.08 152.243 109.124 152.001 107.205L154.183 108.806Z" fill="#FF66FF"/>
<path d="M188.872 134.266L188.872 134.367H189.01L188.872 134.266Z" fill="#FF66FF"/>
<path d="M192.077 129.404L190.451 128.21C191.119 127.481 191.967 126.919 192.927 126.59C193.875 126.265 195.009 126.266 196.763 126.266H233.87C235.624 126.266 236.758 126.265 237.706 126.59C239.459 127.191 240.837 128.568 241.438 130.322C241.762 131.269 241.762 132.404 241.762 134.157L241.761 134.367H239.761C239.761 132.329 239.748 131.56 239.546 130.97C239.145 129.801 238.227 128.882 237.058 128.482C236.467 128.28 235.698 128.266 233.661 128.266H196.972C194.935 128.266 194.166 128.28 193.575 128.482C193.006 128.677 192.497 128.994 192.077 129.404Z" fill="#FF66FF"/>
<path d="M220.052 149.936H233.87C235.624 149.935 236.758 149.935 237.706 150.26C239.459 150.86 240.837 152.238 241.438 153.991C241.762 154.939 241.762 156.074 241.762 157.827L241.761 158.037H239.761C239.761 155.999 239.748 155.23 239.546 154.64C239.145 153.47 238.227 152.552 237.058 152.152C236.467 151.949 235.698 151.936 233.661 151.936H222.777L220.052 149.936Z" fill="#FF66FF"/>
<path d="M210.222 149.936L212.947 151.936H196.972C194.935 151.936 194.166 151.949 193.575 152.152C192.406 152.552 191.488 153.47 191.087 154.64C190.885 155.23 190.872 155.999 190.872 158.037H188.872L188.872 157.827C188.871 156.074 188.871 154.939 189.195 153.991C189.796 152.238 191.174 150.86 192.927 150.26C193.875 149.935 195.009 149.935 196.763 149.936H210.222Z" fill="#FF66FF"/>
<path fill-rule="evenodd" clip-rule="evenodd" d="M118.862 113.064C118.862 120.254 113.034 126.083 105.844 126.083C98.6542 126.083 92.8257 120.254 92.8257 113.064C92.8257 105.874 98.6542 100.046 105.844 100.046C113.034 100.046 118.862 105.874 118.862 113.064ZM116.862 113.064C116.862 119.15 111.929 124.083 105.844 124.083C99.7588 124.083 94.8257 119.15 94.8257 113.064C94.8257 106.979 99.7588 102.046 105.844 102.046C111.929 102.046 116.862 106.979 116.862 113.064Z" fill="#FF66FF"/>
<path d="M233.87 102.596C235.624 102.596 236.758 102.596 237.706 102.92C239.459 103.521 240.837 104.898 241.438 106.652C241.762 107.6 241.762 108.734 241.762 110.488L241.761 110.697H239.761C239.761 108.66 239.748 107.891 239.546 107.3C239.145 106.131 238.227 105.213 237.058 104.812C236.467 104.61 235.698 104.596 233.661 104.596H196.972C194.935 104.596 194.166 104.61 193.575 104.812C192.406 105.213 191.488 106.131 191.087 107.3C190.885 107.891 190.872 108.66 190.872 110.697H188.872L188.872 110.488C188.871 108.734 188.871 107.6 189.195 106.652C189.796 104.898 191.174 103.521 192.927 102.92C193.875 102.596 195.009 102.596 196.763 102.596H233.87Z" fill="#FF66FF"/>
<path d="M23 5.36694L281 194.725M23 194.725L281 5.36694" stroke="#32FFBD" stroke-width="2"/>
</svg>
