<svg width="304" height="273" viewBox="0 0 304 273" fill="none" xmlns="http://www.w3.org/2000/svg">
<g clip-path="url(#clip0_332_315)">
<path fill-rule="evenodd" clip-rule="evenodd" d="M83.946 47.8204C83.9848 47.9258 84.0236 48.0526 84.1012 48.3063C84.2951 48.9406 84.392 49.2577 84.489 49.521C86.2476 54.2971 91.313 56.9904 96.256 55.7776C96.5284 55.7108 96.8456 55.6138 97.4798 55.4199L142.016 41.8037C142.651 41.6098 142.968 41.5129 143.231 41.4159C148.007 39.6573 150.7 34.5919 149.488 29.6489C149.421 29.3764 149.324 29.0593 149.13 28.425C149.052 28.1713 149.014 28.0445 148.987 27.9355C148.502 25.9583 149.579 23.9321 151.489 23.2287C151.595 23.1899 151.722 23.1511 151.975 23.0736L152.658 22.8647C171.592 17.0761 181.059 14.1817 188.739 18.2654C196.42 22.3491 199.314 31.8161 205.103 50.7499L267.67 255.399C273.459 274.333 276.353 283.8 272.27 291.48C268.186 299.161 258.719 302.055 239.785 307.844L165.193 330.649C146.26 336.437 136.793 339.332 129.112 335.248C121.432 331.164 118.538 321.697 112.749 302.763L50.1814 98.1141C44.3928 79.1803 41.4984 69.7133 45.5821 62.033C49.6658 54.3527 59.1327 51.4584 78.0666 45.6697L78.7497 45.4609C79.0034 45.3833 79.1302 45.3445 79.2392 45.3178C81.2164 44.8327 83.2426 45.91 83.946 47.8204ZM79.3344 47.3735L78.6513 47.5823C69.1303 50.4932 62.1832 52.6216 57.0899 54.9597C52.0494 57.2735 49.102 59.6732 47.348 62.972C45.594 66.2708 45.2527 70.0561 46.1531 75.5288C47.0629 81.0588 49.1832 88.0084 52.094 97.5294L114.662 302.179C117.572 311.7 119.701 318.647 122.039 323.74C124.353 328.781 126.752 331.728 130.051 333.482C133.35 335.236 137.135 335.577 142.608 334.677C148.138 333.767 155.088 331.647 164.609 328.736L239.2 305.931C248.721 303.02 255.669 300.892 260.762 298.554C265.802 296.24 268.75 293.84 270.504 290.541C272.258 287.242 272.599 283.457 271.699 277.984C270.789 272.454 268.669 265.505 265.758 255.984L203.19 51.3347C200.279 41.8137 198.151 34.8666 195.813 29.7732C193.499 24.7327 191.099 21.7853 187.801 20.0313C184.502 18.2773 180.716 17.936 175.244 18.8364C169.714 19.7462 162.764 21.8665 153.243 24.7773L152.56 24.9862C152.28 25.0717 152.22 25.091 152.18 25.1055C151.225 25.4572 150.687 26.4703 150.929 27.4589C150.939 27.4997 150.957 27.5606 151.042 27.8403L151.063 27.9084C151.237 28.4775 151.35 28.8445 151.43 29.1723C152.885 35.1039 149.653 41.1824 143.922 43.2927C143.605 43.4093 143.238 43.5215 142.669 43.6955L97.9965 57.3533C97.4275 57.5273 97.0603 57.6396 96.7325 57.72C90.8009 59.1754 84.7225 55.9434 82.6122 50.2121C82.4955 49.8953 82.3833 49.5283 82.2094 48.9592L82.1885 48.8911C82.103 48.6114 82.0837 48.5509 82.0692 48.5115C81.7175 47.5563 80.7044 47.0176 79.7158 47.2602C79.6751 47.2702 79.6141 47.288 79.3344 47.3735Z" fill="#FF66FF"/>
<path fill-rule="evenodd" clip-rule="evenodd" d="M93.4741 43.0504C91.6255 43.6156 90.5852 45.5723 91.1503 47.4208C91.7155 49.2693 93.6721 50.3097 95.5207 49.7446C97.3692 49.1794 98.4096 47.2227 97.8444 45.3742C97.2793 43.5257 95.3226 42.4853 93.4741 43.0504ZM93.0629 46.8361C92.8207 46.0438 93.2666 45.2053 94.0588 44.963C94.8511 44.7208 95.6896 45.1667 95.9318 45.9589C96.174 46.7512 95.7282 47.5897 94.9359 47.832C94.1437 48.0742 93.3051 47.6283 93.0629 46.8361Z" fill="#FF66FF"/>
<path fill-rule="evenodd" clip-rule="evenodd" d="M229.761 104.04L215.092 56.0613C207.098 29.9146 203.101 16.8412 192.495 11.2018C181.889 5.56241 168.816 9.55934 142.669 17.5532L83.378 35.6803C57.2312 43.6741 44.1578 47.6711 38.5184 58.2772C32.8791 68.8833 36.876 81.9567 44.8699 108.103L48.7206 120.699C48.3892 120.684 48.0497 120.725 47.7143 120.828C46.1299 121.312 45.2381 122.989 45.7225 124.574L49.5234 137.006C50.0078 138.59 51.6849 139.482 53.2694 138.998C53.6047 138.895 53.909 138.739 54.1758 138.542L56.6146 146.519C56.2832 146.505 55.9437 146.545 55.6084 146.648C54.0239 147.132 53.1322 148.809 53.6166 150.394L61.2182 175.258C61.7027 176.842 63.3798 177.734 64.9643 177.25C65.2996 177.147 65.6039 176.991 65.8707 176.794L68.3095 184.771C67.978 184.757 67.6385 184.798 67.3032 184.9C65.7187 185.385 64.827 187.062 65.3114 188.646L72.9131 213.51C73.3975 215.095 75.0746 215.986 76.6591 215.502C76.9944 215.399 77.2987 215.243 77.5655 215.046L102.759 297.452C110.753 323.599 114.75 336.672 125.356 342.311C135.963 347.951 149.036 343.954 175.183 335.96L234.474 317.833C260.62 309.839 273.694 305.842 279.333 295.236C284.972 284.63 280.976 271.556 272.982 245.41L243.695 149.616C244.026 149.63 244.365 149.589 244.701 149.487C246.285 149.002 247.177 147.325 246.693 145.741L234.413 105.576C233.929 103.992 232.251 103.1 230.667 103.584C230.332 103.687 230.027 103.843 229.761 104.04ZM143.254 19.4658L83.9627 37.5929C70.8353 41.6063 61.1833 44.5617 54.0923 47.8168C47.0541 51.0476 42.8162 54.4544 40.2843 59.2161C37.7525 63.9779 37.2979 69.3963 38.5552 77.0379C39.8218 84.7369 42.769 94.3913 46.7825 107.519L104.672 296.867C108.686 309.995 111.641 319.646 114.896 326.737C118.127 333.776 121.534 338.014 126.295 340.545C131.057 343.077 136.475 343.532 144.117 342.275C151.816 341.008 161.47 338.061 174.598 334.047L233.889 315.92C247.016 311.907 256.668 308.951 263.759 305.696C270.797 302.466 275.035 299.059 277.567 294.297C280.099 289.535 280.554 284.117 279.296 276.475C278.03 268.776 275.083 259.122 271.069 245.994L240.962 147.518L240.955 147.495L228.675 107.33L228.668 107.308L213.18 56.6461C209.166 43.5186 206.211 33.8667 202.956 26.7757C199.725 19.7374 196.318 15.4995 191.556 12.9677C186.795 10.4358 181.376 9.98129 173.734 11.2385C166.036 12.5051 156.381 15.4524 143.254 19.4658ZM242.871 146.923L230.584 106.732C230.431 106.208 230.728 105.657 231.252 105.497C231.78 105.335 232.339 105.633 232.5 106.161L244.78 146.326C244.941 146.854 244.644 147.413 244.116 147.574C243.592 147.734 243.038 147.443 242.871 146.923ZM53.3486 135.836L49.5477 123.404C49.3863 122.876 48.8272 122.579 48.2991 122.74C47.7709 122.902 47.4737 123.461 47.6351 123.989L51.436 136.421C51.5974 136.949 52.1565 137.246 52.6846 137.085C53.2128 136.924 53.51 136.364 53.3486 135.836ZM57.4418 149.224L65.0434 174.088C65.2049 174.617 64.9077 175.176 64.3795 175.337C63.8514 175.499 63.2923 175.201 63.1308 174.673L55.5292 149.809C55.3677 149.281 55.665 148.722 56.1931 148.561C56.7213 148.399 57.2803 148.696 57.4418 149.224ZM76.7383 212.341L69.1366 187.477C68.9751 186.948 68.4161 186.651 67.8879 186.813C67.3598 186.974 67.0625 187.533 67.224 188.061L74.8257 212.925C74.9871 213.453 75.5462 213.751 76.0743 213.589C76.6025 213.428 76.8997 212.869 76.7383 212.341Z" fill="#FF66FF"/>
<path fill-rule="evenodd" clip-rule="evenodd" d="M162.664 62.6998C171.506 59.9999 178.761 63.1548 182.208 69.1505L182.576 69.7904L175.355 76.1077L174.817 75.1232C173.764 73.1952 172.327 71.9033 170.687 71.2349C169.046 70.5662 167.133 70.4937 165.079 71.1217C160.424 72.5448 157.647 77.2269 159.33 82.7298C161.032 88.2975 166.089 90.5138 170.771 89.0823C173.305 88.3074 175.021 86.9046 176.054 85.0836C177.095 83.2467 177.487 80.9021 177.208 78.1868L177.096 77.1056L186.528 77.909L186.577 78.6835C186.853 83.0909 185.855 87.0928 183.595 90.355C181.335 93.6178 177.857 96.0762 173.286 97.4736C167.963 99.1009 162.961 98.6161 158.894 96.4386C154.833 94.2639 151.775 90.4382 150.267 85.5102C147.105 75.8437 152.731 65.5309 162.664 62.6998ZM163.165 64.4287C154.174 66.9868 149.14 76.2893 151.98 84.9582L151.983 84.9667L151.985 84.9752C153.368 89.499 156.141 92.9221 159.744 94.8518C163.345 96.78 167.847 97.2544 172.76 95.7522C177.003 94.4551 180.118 92.2124 182.115 89.3299C183.985 86.6311 184.913 83.3152 184.815 79.5695L179.078 79.0809C179.192 81.6424 178.738 83.999 177.62 85.9715C176.337 88.2339 174.225 89.9085 171.297 90.8037C165.697 92.5158 159.611 89.8067 157.608 83.2561C155.642 76.8243 158.925 71.1208 164.553 69.4003C166.951 68.667 169.294 68.7239 171.366 69.5679C173.132 70.2875 174.652 71.5591 175.821 73.3085L180.264 69.4214C177.142 64.63 170.986 62.0376 163.182 64.4237L163.173 64.4263L163.165 64.4287Z" fill="#32FFBD"/>
<path fill-rule="evenodd" clip-rule="evenodd" d="M64.7459 105.624C62.7466 99.0843 66.4641 92.111 74.1395 89.7644C78.0531 88.5679 81.622 88.7659 84.4984 90.1693C87.3802 91.5753 89.4702 94.1452 90.4959 97.5003C91.0731 99.388 91.253 101.186 91.0102 102.771L91.0092 102.777C90.4975 105.955 88.9243 108.059 86.343 110.873C84.3934 113.023 83.0479 114.566 82.2902 115.571C82.1086 115.824 81.9564 116.058 81.8303 116.274L95.142 112.204L97.5629 120.123L72.2935 127.848L72.0303 126.988C70.8904 123.259 70.6987 119.938 71.6477 117.124C72.5498 114.362 74.1133 111.884 76.2704 109.708C79.2879 106.553 80.8382 104.864 81.5773 103.564C81.926 102.952 82.0698 102.462 82.1036 101.969C82.1384 101.461 82.0611 100.894 81.8802 100.102C81.5279 98.9763 80.8249 98.212 79.9146 97.8065C78.9826 97.3914 77.7519 97.3183 76.3308 97.7528C73.7964 98.5276 72.6349 100.645 73.2965 102.809C73.6847 104.079 74.5811 105.058 76.0993 105.696L77.1998 106.159L71.4405 113.326L70.783 112.976C67.7526 111.365 65.7551 108.925 64.7459 105.624ZM74.6658 91.4858C67.8359 93.5738 64.7897 99.6106 66.4672 105.098C67.2646 107.706 68.744 109.648 70.9846 111.02L74.3542 106.827C72.9838 106.002 72.0325 104.831 71.5751 103.335C70.5807 100.083 72.4635 97.0529 75.8046 96.0314C77.5507 95.4976 79.2401 95.5356 80.6469 96.1622C82.0675 96.795 83.1177 97.9933 83.6105 99.6053L83.6198 99.6356L83.6269 99.6665C83.8242 100.523 83.9532 101.307 83.8994 102.092C83.8442 102.898 83.6011 103.647 83.1418 104.455C82.2652 105.995 80.5163 107.873 77.5656 110.958L77.56 110.964L77.5543 110.969C75.572 112.968 74.1652 115.211 73.3575 117.686L73.3546 117.695C72.6322 119.835 72.6631 122.459 73.5033 125.596L95.3152 118.928L93.9469 114.452L79.4483 118.885L79.5074 117.609C79.5527 116.633 80.0619 115.587 80.8342 114.513L80.8401 114.504L80.8461 114.496C81.66 113.415 83.0632 111.811 85.0112 109.662L85.0148 109.658C87.5513 106.893 88.8078 105.121 89.2315 102.495C89.4236 101.236 89.2916 99.7177 88.7746 98.0265C87.8777 95.093 86.0925 92.9499 83.7091 91.787C81.3203 90.6215 78.2343 90.3947 74.6658 91.4858Z" fill="#32FFBD"/>
<path fill-rule="evenodd" clip-rule="evenodd" d="M99.7238 92.1833C100.331 89.7895 101.856 88.0666 104.288 87.3232C106.719 86.5799 108.947 87.1553 110.789 88.8002C112.585 90.4039 113.99 92.9943 114.996 96.2841C116.001 99.574 116.285 102.507 115.693 104.841C115.086 107.234 113.561 108.957 111.129 109.701C108.698 110.444 106.47 109.869 104.628 108.224C102.832 106.62 101.427 104.03 100.422 100.74C99.4158 97.45 99.1318 94.517 99.7238 92.1833ZM101.469 92.6259C100.991 94.5092 101.184 97.0771 102.143 100.214C103.102 103.35 104.378 105.587 105.827 106.881C107.23 108.134 108.811 108.527 110.603 107.979C112.395 107.432 113.486 106.221 113.949 104.398C114.426 102.515 114.233 99.9469 113.274 96.8104C112.315 93.6739 111.04 91.437 109.59 90.1428C108.187 88.8899 106.606 88.4968 104.814 89.0446C103.022 89.5923 101.931 90.8026 101.469 92.6259Z" fill="#32FFBD"/>
<path fill-rule="evenodd" clip-rule="evenodd" d="M93.3282 89.1556C94.9095 85.2992 98.0174 82.4642 102.393 81.1264C106.769 79.7885 110.931 80.4009 114.398 82.7138C117.846 85.0133 120.53 88.9399 122.111 94.1089C123.691 99.2779 123.661 104.034 122.089 107.868C120.508 111.725 117.4 114.56 113.024 115.898C108.648 117.235 104.486 116.623 101.019 114.31C97.5713 112.011 94.887 108.084 93.3067 102.915C91.7263 97.7461 91.756 92.9897 93.3282 89.1556ZM94.9936 89.8385C93.6185 93.1921 93.5349 97.5052 95.028 102.389C96.5211 107.272 99.0022 110.801 102.018 112.813C105.013 114.811 108.611 115.364 112.498 114.176C116.384 112.988 119.058 110.517 120.424 107.185C121.799 103.832 121.882 99.5188 120.389 94.6351C118.896 89.7515 116.415 86.2225 113.4 84.2112C110.404 82.2132 106.806 81.6595 102.92 82.8477C99.033 84.036 96.3596 86.5071 94.9936 89.8385Z" fill="#32FFBD"/>
<path fill-rule="evenodd" clip-rule="evenodd" d="M134.451 80.4478C133.818 78.3749 134.92 76.2013 137.057 75.548C139.139 74.9115 141.32 76.0714 141.957 78.1533C142.61 80.2901 141.424 82.4193 139.351 83.0531C137.223 83.7036 135.102 82.5756 134.451 80.4478ZM137.583 77.2694C136.415 77.6265 135.824 78.7813 136.173 79.9215C136.533 81.0987 137.648 81.6916 138.825 81.3317C139.965 80.9831 140.592 79.8478 140.235 78.6795C139.889 77.5483 138.714 76.9235 137.583 77.2694Z" fill="#32FFBD"/>
<path fill-rule="evenodd" clip-rule="evenodd" d="M129.861 81.8512C128.467 77.2905 131.093 72.3521 135.653 70.9577C140.214 69.5634 145.152 72.1892 146.547 76.7499C147.941 81.3106 145.315 86.249 140.755 87.6433C136.194 89.0377 131.256 86.4119 129.861 81.8512ZM136.18 72.6791C132.57 73.7828 130.479 77.7149 131.583 81.3249C132.686 84.9349 136.618 87.0257 140.228 85.922C143.838 84.8183 145.929 80.8862 144.825 77.2762C143.722 73.6662 139.79 71.5754 136.18 72.6791Z" fill="#32FFBD"/>
<path fill-rule="evenodd" clip-rule="evenodd" d="M180.161 137.594C178.995 139.788 179.822 142.493 181.476 147.903C183.129 153.312 183.956 156.017 186.151 157.184C188.345 158.351 191.05 157.524 196.46 155.87L210.804 151.484C216.214 149.83 218.919 149.003 220.086 146.809C221.252 144.615 220.425 141.91 218.771 136.5C217.118 131.091 216.291 128.386 214.096 127.219C211.902 126.052 209.197 126.879 203.787 128.533L189.443 132.919C184.033 134.572 181.328 135.399 180.161 137.594ZM204.372 130.446L190.028 134.831C187.269 135.675 185.393 136.253 184.045 136.871C182.751 137.466 182.223 137.977 181.927 138.533C181.632 139.089 181.503 139.812 181.734 141.218C181.975 142.681 182.545 144.559 183.388 147.318C184.232 150.077 184.81 151.952 185.428 153.3C186.023 154.595 186.534 155.123 187.09 155.418C187.646 155.714 188.369 155.843 189.775 155.611C191.238 155.371 193.116 154.801 195.875 153.957L210.22 149.572C212.978 148.728 214.854 148.15 216.202 147.532C217.497 146.937 218.024 146.426 218.32 145.87C218.615 145.314 218.744 144.591 218.513 143.185C218.272 141.722 217.702 139.844 216.859 137.085C216.015 134.326 215.438 132.451 214.819 131.103C214.224 129.808 213.713 129.28 213.157 128.985C212.601 128.689 211.878 128.56 210.472 128.792C209.009 129.032 207.131 129.602 204.372 130.446Z" fill="#32FFBD"/>
<path fill-rule="evenodd" clip-rule="evenodd" d="M98.4961 215.1C96.8422 209.69 96.0152 206.985 97.182 204.791C98.3488 202.596 101.054 201.77 106.463 200.116L120.808 195.73C126.218 194.076 128.922 193.249 131.117 194.416C133.311 195.583 134.138 198.288 135.792 203.697C137.446 209.107 138.273 211.812 137.106 214.006C135.939 216.2 133.234 217.027 127.825 218.681L113.48 223.067C108.071 224.721 105.366 225.548 103.171 224.381C100.977 223.214 100.15 220.509 98.4961 215.1ZM107.048 202.028L121.393 197.643C124.151 196.799 126.03 196.229 127.493 195.989C128.899 195.757 129.622 195.886 130.178 196.182C130.734 196.477 131.245 197.005 131.839 198.3C132.458 199.648 133.036 201.523 133.879 204.282C134.723 207.041 135.293 208.919 135.533 210.382C135.765 211.788 135.636 212.511 135.34 213.067C135.045 213.623 134.517 214.134 133.222 214.729C131.874 215.347 129.999 215.925 127.24 216.769L112.895 221.154C110.137 221.998 108.259 222.568 106.795 222.808C105.389 223.04 104.666 222.911 104.11 222.615C103.554 222.32 103.043 221.792 102.449 220.497C101.83 219.149 101.252 217.274 100.409 214.515C99.5652 211.756 98.9955 209.878 98.7548 208.415C98.5235 207.009 98.6523 206.286 98.9479 205.73C99.2434 205.174 99.771 204.663 101.066 204.068C102.414 203.45 104.289 202.872 107.048 202.028Z" fill="#32FFBD"/>
<path fill-rule="evenodd" clip-rule="evenodd" d="M191.856 175.846C190.69 178.04 191.516 180.745 193.17 186.155C194.824 191.565 195.651 194.269 197.846 195.436C200.04 196.603 202.745 195.776 208.155 194.122L222.499 189.737C227.909 188.083 230.614 187.256 231.78 185.061C232.947 182.867 232.12 180.162 230.466 174.752C228.812 169.343 227.985 166.638 225.791 165.471C223.597 164.304 220.892 165.131 215.482 166.785L201.138 171.171C195.728 172.825 193.023 173.652 191.856 175.846ZM216.067 168.698L201.722 173.083C198.963 173.927 197.088 174.505 195.74 175.123C194.445 175.718 193.918 176.229 193.622 176.785C193.327 177.341 193.198 178.064 193.429 179.47C193.67 180.933 194.24 182.811 195.083 185.57C195.926 188.329 196.504 190.205 197.123 191.552C197.717 192.847 198.229 193.375 198.785 193.67C199.34 193.966 200.064 194.095 201.47 193.863C202.933 193.623 204.811 193.053 207.57 192.21L221.914 187.824C224.673 186.98 226.549 186.403 227.896 185.784C229.191 185.19 229.719 184.678 230.014 184.122C230.31 183.567 230.439 182.843 230.208 181.437C229.967 179.974 229.397 178.096 228.554 175.337C227.71 172.578 227.132 170.703 226.514 169.355C225.919 168.06 225.408 167.533 224.852 167.237C224.296 166.941 223.573 166.813 222.167 167.044C220.704 167.285 218.826 167.854 216.067 168.698Z" fill="#32FFBD"/>
<path fill-rule="evenodd" clip-rule="evenodd" d="M110.191 253.352C108.537 247.942 107.71 245.237 108.877 243.043C110.044 240.849 112.749 240.022 118.158 238.368L132.503 233.982C137.913 232.328 140.617 231.501 142.812 232.668C145.006 233.835 145.833 236.54 147.487 241.949C149.141 247.359 149.968 250.064 148.801 252.258C147.634 254.453 144.93 255.28 139.52 256.934L125.175 261.319C119.766 262.973 117.061 263.8 114.866 262.633C112.672 261.466 111.845 258.762 110.191 253.352ZM118.743 240.28L133.088 235.895C135.847 235.051 137.725 234.482 139.188 234.241C140.594 234.01 141.317 234.139 141.873 234.434C142.429 234.73 142.94 235.257 143.534 236.552C144.153 237.9 144.731 239.775 145.574 242.534C146.418 245.293 146.988 247.171 147.228 248.634C147.46 250.04 147.331 250.764 147.035 251.319C146.74 251.875 146.212 252.387 144.917 252.981C143.57 253.6 141.694 254.177 138.935 255.021L124.591 259.407C121.832 260.25 119.954 260.82 118.49 261.06C117.084 261.292 116.361 261.163 115.805 260.867C115.249 260.572 114.738 260.044 114.144 258.749C113.525 257.402 112.947 255.526 112.104 252.767C111.26 250.008 110.691 248.13 110.45 246.667C110.219 245.261 110.347 244.538 110.643 243.982C110.938 243.426 111.466 242.915 112.761 242.32C114.109 241.702 115.984 241.124 118.743 240.28Z" fill="#32FFBD"/>
<path fill-rule="evenodd" clip-rule="evenodd" d="M203.551 214.098C202.384 216.293 203.211 218.997 204.865 224.407C206.519 229.817 207.346 232.522 209.54 233.688C211.735 234.855 214.44 234.028 219.849 232.374L234.194 227.989C239.604 226.335 242.308 225.508 243.475 223.313C244.642 221.119 243.815 218.414 242.161 213.005C240.507 207.595 239.68 204.89 237.486 203.723C235.292 202.557 232.587 203.384 227.177 205.037L212.832 209.423C207.423 211.077 204.718 211.904 203.551 214.098ZM227.762 206.95L213.417 211.336C210.658 212.179 208.783 212.757 207.435 213.376C206.14 213.97 205.613 214.481 205.317 215.037C205.021 215.593 204.893 216.316 205.124 217.722C205.365 219.185 205.934 221.063 206.778 223.822C207.621 226.581 208.199 228.457 208.818 229.804C209.412 231.099 209.924 231.627 210.479 231.922C211.035 232.218 211.759 232.347 213.164 232.116C214.628 231.875 216.506 231.305 219.265 230.462L233.609 226.076C236.368 225.233 238.244 224.655 239.591 224.036C240.886 223.442 241.414 222.93 241.709 222.375C242.005 221.819 242.134 221.095 241.902 219.689C241.662 218.226 241.092 216.348 240.248 213.589C239.405 210.83 238.827 208.955 238.209 207.607C237.614 206.312 237.103 205.785 236.547 205.489C235.991 205.194 235.268 205.065 233.862 205.296C232.399 205.537 230.521 206.107 227.762 206.95Z" fill="#32FFBD"/>
<path d="M164.56 191.765L162.648 192.35L164.402 198.087L158.664 199.842L159.249 201.754L164.987 200L166.741 205.738L168.654 205.153L166.899 199.415L172.637 197.661L172.052 195.748L166.315 197.503L164.56 191.765Z" fill="#32FFBD"/>
<path d="M181.116 225.394L181.701 227.307L168.312 231.4L167.728 229.487L181.116 225.394Z" fill="#32FFBD"/>
<path fill-rule="evenodd" clip-rule="evenodd" d="M145.355 200.774C143.701 195.364 142.874 192.659 144.041 190.465C145.208 188.27 147.913 187.443 153.322 185.789L168.623 181.111C174.033 179.458 176.738 178.631 178.932 179.797C181.127 180.964 181.953 183.669 183.607 189.079L195.302 227.331C196.956 232.741 197.783 235.445 196.616 237.64C195.45 239.834 192.745 240.661 187.335 242.315L172.034 246.993C166.625 248.647 163.92 249.474 161.725 248.307C159.531 247.14 158.704 244.435 157.05 239.026L145.355 200.774ZM169.208 183.024C171.967 182.181 173.845 181.611 175.308 181.37C176.714 181.139 177.437 181.268 177.993 181.563C178.549 181.859 179.06 182.386 179.655 183.681C180.273 185.029 180.851 186.905 181.695 189.663L193.39 227.916C194.233 230.675 194.803 232.553 195.044 234.016C195.275 235.422 195.146 236.145 194.85 236.701C194.555 237.257 194.027 237.768 192.732 238.362C191.385 238.981 189.509 239.559 186.75 240.402L171.449 245.08C168.691 245.924 166.813 246.494 165.349 246.734C163.943 246.966 163.22 246.837 162.664 246.541C162.108 246.246 161.597 245.718 161.003 244.423C160.384 243.075 159.806 241.2 158.963 238.441L147.268 200.189C146.424 197.43 145.855 195.552 145.614 194.089C145.383 192.683 145.511 191.959 145.807 191.404C146.103 190.848 146.63 190.336 147.925 189.742C149.273 189.123 151.148 188.546 153.907 187.702L169.208 183.024Z" fill="#32FFBD"/>
<path d="M100.191 158.322C97.0206 160.136 95.4099 163.962 96.5227 167.601C97.8145 171.827 102.287 174.205 106.512 172.913C110.737 171.621 113.115 167.149 111.824 162.923C110.711 159.284 107.236 157.013 103.593 157.281L103.446 155.287C108 154.951 112.344 157.786 113.736 162.339C115.351 167.62 112.378 173.211 107.097 174.825C101.815 176.44 96.2248 173.468 94.6101 168.186C93.2183 163.634 95.2342 158.854 99.1977 156.586L100.191 158.322Z" fill="#32FFBD"/>
<path d="M103.083 158.276L101.17 158.86L103.217 165.555L105.129 164.97L103.083 158.276Z" fill="#32FFBD"/>
<path fill-rule="evenodd" clip-rule="evenodd" d="M83.5852 166.328C81.9313 160.919 81.1043 158.214 82.2711 156.019C83.4379 153.825 86.1427 152.998 91.5524 151.344L105.897 146.959C111.307 145.305 114.011 144.478 116.206 145.644C118.4 146.811 119.227 149.516 120.881 154.926L124.097 165.445C125.751 170.855 126.578 173.56 125.411 175.754C124.244 177.948 121.54 178.775 116.13 180.429L101.785 184.815C96.3757 186.469 93.6709 187.296 91.4765 186.129C89.2821 184.962 88.4552 182.257 86.8013 176.848L83.5852 166.328ZM92.1371 153.257L106.482 148.871C109.241 148.028 111.119 147.458 112.582 147.217C113.988 146.986 114.711 147.115 115.267 147.41C115.823 147.706 116.334 148.233 116.928 149.528C117.547 150.876 118.125 152.752 118.968 155.51L122.185 166.03C123.028 168.789 123.598 170.667 123.838 172.13C124.07 173.536 123.941 174.259 123.645 174.815C123.35 175.371 122.822 175.882 121.527 176.477C120.18 177.095 118.304 177.673 115.545 178.517L101.201 182.902C98.4417 183.746 96.5637 184.315 95.1005 184.556C93.6946 184.787 92.9713 184.659 92.4155 184.363C91.8596 184.067 91.3483 183.54 90.7539 182.245C90.1352 180.897 89.5574 179.022 88.7139 176.263L85.4978 165.743C84.6543 162.985 84.0846 161.107 83.8439 159.643C83.6126 158.237 83.7415 157.514 84.037 156.958C84.3325 156.402 84.8601 155.891 86.155 155.297C87.5027 154.678 89.3782 154.1 92.1371 153.257Z" fill="#32FFBD"/>
</g>
<defs>
<clipPath id="clip0_332_315">
<rect width="304" height="273" fill="white"/>
</clipPath>
</defs>
</svg>
