<svg width="304" height="273" viewBox="0 0 304 273" fill="none" xmlns="http://www.w3.org/2000/svg">
<rect x="29.1613" y="53.3016" width="176" height="312" rx="28" transform="rotate(-17 29.1613 53.3016)" stroke="#FF66FF" stroke-width="2"/>
<path d="M50.5045 123.112L54.3053 135.544C54.6282 136.6 54.0337 137.718 52.9774 138.041C51.9211 138.364 50.803 137.77 50.4801 136.713L46.6792 124.281C46.3563 123.225 46.9508 122.107 48.0071 121.784C49.0634 121.461 50.1815 122.056 50.5045 123.112Z" stroke="#FF66FF" stroke-width="2"/>
<path d="M58.3985 148.932L66.0002 173.796C66.3231 174.852 65.7286 175.97 64.6723 176.293C63.616 176.616 62.4979 176.022 62.175 174.965L54.5733 150.101C54.2503 149.045 54.8448 147.927 55.9012 147.604C56.9575 147.281 58.0756 147.876 58.3985 148.932Z" stroke="#FF66FF" stroke-width="2"/>
<path d="M70.0933 187.184L77.695 212.048C78.0179 213.104 77.4234 214.222 76.3671 214.545C75.3108 214.868 74.1927 214.274 73.8698 213.218L66.2681 188.354C65.9452 187.297 66.5397 186.179 67.596 185.856C68.6523 185.533 69.7704 186.128 70.0933 187.184Z" stroke="#FF66FF" stroke-width="2"/>
<path d="M229.632 107.038L241.911 147.203C242.234 148.259 243.353 148.853 244.409 148.53C245.465 148.208 246.06 147.089 245.737 146.033L233.457 105.868C233.134 104.812 232.016 104.218 230.96 104.54C229.903 104.863 229.309 105.981 229.632 107.038Z" stroke="#FF66FF" stroke-width="2"/>
<path d="M78.3591 46.6259L79.0422 46.4171C79.3089 46.3355 79.4028 46.3072 79.4777 46.2889C80.9606 45.925 82.4802 46.733 83.0078 48.1659C83.0344 48.2382 83.0635 48.3319 83.145 48.5986L83.1572 48.6385C83.3396 49.235 83.444 49.5766 83.5507 49.8664C85.4852 55.1201 91.0571 58.0828 96.4944 56.7487C96.7944 56.6751 97.136 56.5707 97.7324 56.3883L97.7724 56.3761L142.309 42.7599L142.349 42.7477C142.945 42.5653 143.287 42.4609 143.577 42.3542C148.83 40.4197 151.793 34.8478 150.459 29.4105C150.385 29.1105 150.281 28.769 150.099 28.1725L150.086 28.1326C150.005 27.8659 149.977 27.772 149.958 27.6971C149.594 26.2142 150.402 24.6946 151.835 24.167C151.907 24.1403 152.001 24.1113 152.268 24.0298L152.951 23.8209C162.445 20.9183 169.47 18.7728 175.082 17.8496C180.665 16.931 184.701 17.2503 188.27 19.1483C191.84 21.0462 194.361 24.2137 196.722 29.3559C199.094 34.5246 201.244 41.5482 204.147 51.0422L266.714 255.691C269.617 265.185 271.762 272.21 272.686 277.822C273.604 283.405 273.285 287.441 271.387 291.011C269.489 294.58 266.321 297.102 261.179 299.462C256.011 301.835 248.987 303.985 239.493 306.887L164.901 329.692C155.407 332.595 148.382 334.74 142.771 335.663C137.187 336.582 133.151 336.263 129.582 334.365C126.012 332.467 123.491 329.299 121.13 324.157C118.758 318.988 116.608 311.965 113.705 302.471L51.1379 97.8216C48.2353 88.3277 46.0898 81.3028 45.1665 75.691C44.248 70.1079 44.5673 66.0719 46.4652 62.5024C48.3632 58.9329 51.5307 56.4112 56.6729 54.0507C61.8415 51.6781 68.8652 49.5285 78.3591 46.6259Z" stroke="#FF66FF" stroke-width="2"/>
<circle cx="94.4975" cy="46.3974" r="2.5" transform="rotate(-17 94.4975 46.3974)" stroke="#FF66FF" stroke-width="2"/>
<path d="M76.9151 110.336L77.5541 110.97L77.5598 110.964L77.5654 110.958L76.9151 110.336ZM72.5017 117.407L73.3544 117.695L73.3573 117.686L72.5017 117.407ZM72.8908 126.725L72.0301 126.988L72.2933 127.848L73.1539 127.585L72.8908 126.725ZM96.4389 119.525L96.702 120.386L97.5627 120.123L97.2995 119.262L96.4389 119.525ZM94.5443 113.328L95.405 113.065L95.1418 112.205L94.2812 112.468L94.5443 113.328ZM80.4063 117.651L79.5072 117.609L79.4481 118.885L80.6694 118.511L80.4063 117.651ZM81.565 115.038L80.8459 114.497L80.8399 114.505L80.834 114.513L81.565 115.038ZM85.6778 110.267L85.0146 109.658L85.011 109.662L85.6778 110.267ZM90.1204 102.635L91.009 102.778L91.01 102.771L90.1204 102.635ZM71.2053 112.182L70.7828 112.977L71.4404 113.326L71.9069 112.746L71.2053 112.182ZM75.7503 106.526L76.4518 107.09L77.1996 106.159L76.0991 105.696L75.7503 106.526ZM82.7497 99.8687L83.6267 99.6666L83.6196 99.6358L83.6104 99.6055L82.7497 99.8687ZM76.276 109.702C74.1148 111.881 72.5488 114.362 71.6461 117.128L73.3573 117.686C74.165 115.211 75.5718 112.968 77.5541 110.97L76.276 109.702ZM71.649 117.119C70.6983 119.935 70.8896 123.257 72.0301 126.988L73.7515 126.461C72.6747 122.939 72.5665 120.029 73.3544 117.695L71.649 117.119ZM73.1539 127.585L96.702 120.386L96.1757 118.665L72.6277 125.864L73.1539 127.585ZM97.2995 119.262L95.405 113.065L93.6836 113.592L95.5782 119.788L97.2995 119.262ZM94.2812 112.468L80.1431 116.79L80.6694 118.511L94.8074 114.189L94.2812 112.468ZM81.3053 117.692C81.3262 117.243 81.5893 116.546 82.2959 115.563L80.834 114.513C80.0617 115.588 79.5525 116.633 79.5072 117.609L81.3053 117.692ZM82.284 115.579C83.0407 114.574 84.3888 113.028 86.3445 110.871L85.011 109.662C83.063 111.811 81.6598 113.415 80.8459 114.497L82.284 115.579ZM86.341 110.875C88.9234 108.061 90.4971 105.956 91.009 102.778L89.2319 102.491C88.8087 105.12 87.5523 106.892 85.0146 109.659L86.341 110.875ZM91.01 102.771C91.2528 101.186 91.0729 99.3882 90.4957 97.5005L88.7744 98.0267C89.2919 99.7194 89.4236 101.239 89.2308 102.498L91.01 102.771ZM90.4957 97.5005C89.47 94.1454 87.38 91.5755 84.4982 90.1695C81.6219 88.7661 78.0529 88.5681 74.1393 89.7646L74.6656 91.486C78.2341 90.3949 81.3202 90.6217 83.7089 91.7872C86.0923 92.9501 87.8775 95.0932 88.7744 98.0267L90.4957 97.5005ZM74.1393 89.7646C66.4639 92.1112 62.7464 99.0845 64.7457 105.624L66.467 105.098C64.7895 99.6108 67.8357 93.574 74.6656 91.486L74.1393 89.7646ZM64.7457 105.624C65.7549 108.925 67.7524 111.365 70.7828 112.977L71.6278 111.387C69.0242 110.003 67.3384 107.948 66.467 105.098L64.7457 105.624ZM71.9069 112.746L76.4518 107.09L75.0487 105.962L70.5037 111.618L71.9069 112.746ZM76.0991 105.696C74.5809 105.058 73.6845 104.079 73.2963 102.809L71.5749 103.335C72.1411 105.187 73.4637 106.541 75.4014 107.356L76.0991 105.696ZM73.2963 102.809C72.6347 100.645 73.7962 98.5278 76.3306 97.753L75.8044 96.0316C72.4633 97.0531 70.5805 100.083 71.5749 103.335L73.2963 102.809ZM76.3306 97.753C77.7517 97.3185 78.9824 97.3916 79.9144 97.8067C80.8326 98.2157 81.5398 98.9897 81.889 100.132L83.6104 99.6055C83.1175 97.9935 82.0673 96.7952 80.6468 96.1624C79.2399 95.5358 77.5505 95.4978 75.8044 96.0316L76.3306 97.753ZM81.8726 100.071C82.0588 100.879 82.1387 101.455 82.1034 101.969C82.0696 102.462 81.9258 102.952 81.5771 103.565C80.8376 104.865 79.2858 106.556 76.2647 109.714L77.5654 110.958C80.5161 107.873 82.2651 105.996 83.1416 104.455C83.6009 103.647 83.844 102.898 83.8992 102.092C83.953 101.308 83.824 100.523 83.6267 99.6666L81.8726 100.071ZM93.3065 102.915C94.8868 108.084 97.5711 112.011 101.019 114.31C104.486 116.623 108.648 117.236 113.024 115.898L112.497 114.176C108.611 115.365 105.013 114.811 102.017 112.813C99.002 110.802 96.5209 107.273 95.0278 102.389L93.3065 102.915ZM113.024 115.898C117.4 114.56 120.508 111.725 122.089 107.869C123.661 104.034 123.691 99.2781 122.11 94.1091L120.389 94.6353C121.882 99.519 121.798 103.832 120.423 107.186C119.057 110.517 116.384 112.988 112.497 114.176L113.024 115.898ZM122.11 94.1091C120.53 88.9401 117.846 85.0135 114.398 82.714C110.931 80.4011 106.769 79.7887 102.393 81.1266L102.919 82.8479C106.806 81.6597 110.404 82.2134 113.399 84.2114C116.415 86.2227 118.896 89.7517 120.389 94.6353L122.11 94.1091ZM102.393 81.1266C98.0172 82.4644 94.9093 85.2994 93.328 89.1558C91.7558 92.9899 91.7261 97.7463 93.3065 102.915L95.0278 102.389C93.5347 97.5054 93.6183 93.1923 94.9934 89.8387C96.3595 86.5072 99.0328 84.0362 102.919 82.8479L102.393 81.1266ZM113.274 96.8106C114.233 99.9471 114.426 102.515 113.948 104.398C113.486 106.222 112.395 107.432 110.603 107.98L111.129 109.701C113.561 108.958 115.086 107.235 115.693 104.841C116.285 102.507 116.001 99.5742 114.995 96.2843L113.274 96.8106ZM110.603 107.98C108.811 108.527 107.23 108.134 105.827 106.881C104.377 105.587 103.102 103.35 102.143 100.214L100.421 100.74C101.427 104.03 102.832 106.62 104.628 108.224C106.47 109.869 108.698 110.444 111.129 109.701L110.603 107.98ZM102.143 100.214C101.184 97.0773 100.991 94.5094 101.468 92.6261C101.931 90.8028 103.022 89.5925 104.814 89.0448L104.288 87.3234C101.856 88.0667 100.331 89.7897 99.7236 92.1835C99.1316 94.5172 99.4156 97.4502 100.421 100.74L102.143 100.214ZM104.814 89.0448C106.606 88.497 108.187 88.8901 109.59 90.143C111.039 91.4372 112.315 93.6741 113.274 96.8106L114.995 96.2843C113.99 92.9945 112.585 90.4041 110.789 88.8004C108.947 87.1555 106.719 86.5801 104.288 87.3234L104.814 89.0448ZM129.861 81.8514C131.255 86.4121 136.194 89.0379 140.754 87.6435L140.228 85.9222C136.618 87.0259 132.686 84.9351 131.582 81.3251L129.861 81.8514ZM140.754 87.6435C145.315 86.2492 147.941 81.3108 146.547 76.7501L144.825 77.2764C145.929 80.8864 143.838 84.8185 140.228 85.9222L140.754 87.6435ZM146.547 76.7501C145.152 72.1894 140.214 69.5636 135.653 70.9579L136.179 72.6793C139.789 71.5756 143.722 73.6664 144.825 77.2764L146.547 76.7501ZM135.653 70.9579C131.092 72.3523 128.467 77.2907 129.861 81.8514L131.582 81.3251C130.479 77.7151 132.569 73.783 136.179 72.6793L135.653 70.9579ZM140.235 78.6797C140.592 79.848 139.965 80.9833 138.825 81.3319L139.351 83.0533C141.424 82.4195 142.61 80.2902 141.956 78.1535L140.235 78.6797ZM138.825 81.3319C137.648 81.6918 136.532 81.0989 136.173 79.9217L134.451 80.448C135.102 82.5758 137.223 83.7038 139.351 83.0533L138.825 81.3319ZM136.173 79.9217C135.824 78.7815 136.415 77.6267 137.583 77.2696L137.057 75.5482C134.92 76.2015 133.817 78.3751 134.451 80.448L136.173 79.9217ZM137.583 77.2696C138.714 76.9237 139.889 77.5485 140.235 78.6797L141.956 78.1535C141.32 76.0715 139.138 74.9117 137.057 75.5482L137.583 77.2696ZM175.607 74.6918L174.817 75.1233L175.355 76.1079L176.199 75.3692L175.607 74.6918ZM181.428 69.5993L182.021 70.2767L182.576 69.7906L182.208 69.1507L181.428 69.5993ZM162.918 63.5632L163.165 64.4288L163.173 64.4264L163.182 64.4239L162.918 63.5632ZM151.124 85.2386L151.985 84.9754L151.982 84.9669L151.98 84.9584L151.124 85.2386ZM185.678 78.74L186.576 78.6837L186.528 77.9092L185.755 77.8433L185.678 78.74ZM178.103 78.0948L178.179 77.198L177.096 77.1058L177.207 78.1869L178.103 78.0948ZM159.33 82.73C157.647 77.2271 160.424 72.545 165.079 71.1219L164.553 69.4005C158.925 71.121 155.642 76.8245 157.608 83.2563L159.33 82.73ZM165.079 71.1219C167.133 70.4939 169.046 70.5664 170.686 71.235C172.327 71.9035 173.763 73.1954 174.817 75.1233L176.396 74.2603C175.17 72.0164 173.438 70.4123 171.366 69.5681C169.294 68.724 166.951 68.6672 164.553 69.4005L165.079 71.1219ZM176.199 75.3692L182.021 70.2767L180.835 68.9219L175.014 74.0144L176.199 75.3692ZM182.208 69.1507C178.76 63.1531 171.501 59.9981 162.655 62.7025L163.182 64.4239C171.32 61.9358 177.665 64.861 180.648 70.0479L182.208 69.1507ZM162.672 62.6976C152.731 65.5261 147.1 75.8471 150.269 85.5188L151.98 84.9584C149.14 76.2895 154.174 66.9869 163.165 64.4288L162.672 62.6976ZM150.264 85.5017C151.772 90.4339 154.831 94.2628 158.894 96.4388C162.961 98.6162 167.963 99.1011 173.286 97.4738L172.76 95.7524C167.846 97.2546 163.345 96.7802 159.744 94.852C156.14 92.9223 153.368 89.4992 151.985 84.9754L150.264 85.5017ZM173.286 97.4738C177.856 96.0764 181.334 93.6179 183.595 90.3552C185.855 87.093 186.853 83.0911 186.576 78.6837L184.78 78.7964C185.035 82.8596 184.113 86.447 182.115 89.3301C180.118 92.2125 177.003 94.4553 172.76 95.7524L173.286 97.4738ZM185.755 77.8433L178.179 77.198L178.026 78.9915L185.602 79.6368L185.755 77.8433ZM177.207 78.1869C177.487 80.9023 177.095 83.2469 176.054 85.0838C175.021 86.9048 173.305 88.3076 170.771 89.0825L171.297 90.8039C174.225 89.9087 176.337 88.2341 177.619 85.9717C178.893 83.7253 179.304 80.9807 178.998 78.0026L177.207 78.1869ZM170.771 89.0825C166.089 90.5139 161.032 88.2977 159.33 82.73L157.608 83.2563C159.611 89.8069 165.697 92.516 171.297 90.8039L170.771 89.0825Z" fill="#32FFBD"/>
<rect x="179.216" y="137.091" width="37" height="22" rx="5" transform="rotate(-17 179.216 137.091)" stroke="#32FFBD" stroke-width="2"/>
<rect x="96.2363" y="204.288" width="37" height="22" rx="5" transform="rotate(-17 96.2363 204.288)" stroke="#32FFBD" stroke-width="2"/>
<rect x="190.911" y="175.343" width="37" height="22" rx="5" transform="rotate(-17 190.911 175.343)" stroke="#32FFBD" stroke-width="2"/>
<rect x="107.931" y="242.54" width="37" height="22" rx="5" transform="rotate(-17 107.931 242.54)" stroke="#32FFBD" stroke-width="2"/>
<rect x="202.605" y="213.596" width="37" height="22" rx="5" transform="rotate(-17 202.605 213.596)" stroke="#32FFBD" stroke-width="2"/>
<rect x="143.095" y="189.962" width="38" height="62" rx="5" transform="rotate(-17 143.095 189.962)" stroke="#32FFBD" stroke-width="2"/>
<rect x="143.095" y="189.962" width="38" height="62" rx="5" transform="rotate(-17 143.095 189.962)" stroke="#32FFBD" stroke-width="2"/>
<path d="M162.648 192.35L164.56 191.765L166.315 197.503L172.052 195.749L172.637 197.661L166.899 199.415L168.654 205.153L166.741 205.738L164.987 200L159.249 201.754L158.664 199.842L164.402 198.088L162.648 192.35Z" fill="#32FFBD"/>
<path d="M181.116 225.394L181.701 227.307L168.312 231.4L167.728 229.487L181.116 225.394Z" fill="#32FFBD"/>
<rect x="81.3253" y="155.517" width="37" height="33" rx="5" transform="rotate(-17 81.3253 155.517)" stroke="#32FFBD" stroke-width="2"/>
<path d="M99.6944 157.454C96.1274 159.495 94.3141 163.798 95.5664 167.894C97.0196 172.647 102.051 175.323 106.804 173.869C111.558 172.416 114.233 167.385 112.78 162.631C111.528 158.535 107.618 155.982 103.52 156.284" stroke="#32FFBD" stroke-width="2"/>
<rect x="101.17" y="158.861" width="2" height="7" transform="rotate(-17 101.17 158.861)" fill="#32FFBD"/>
</svg>
