<svg width="304" height="245" viewBox="0 0 304 245" fill="none" xmlns="http://www.w3.org/2000/svg">
<path d="M24 32.4036H251.596V188.991H43C38.2577 188.991 34.8016 188.989 32.1605 188.633C29.5483 188.282 27.8837 187.602 26.636 186.355C25.3883 185.107 24.7084 183.442 24.3572 180.83C24.0021 178.189 24 174.733 24 169.991V32.4036Z" stroke="#FF66FF" stroke-width="2"/>
<path d="M251.229 32.4036V188.99C253.252 188.989 254.794 188.975 256.05 188.883C257.495 188.777 258.481 188.57 259.309 188.198C261.314 187.295 262.919 185.69 263.822 183.685C264.194 182.857 264.401 181.871 264.507 180.426C264.614 178.971 264.615 177.131 264.615 174.605V32.4036H251.229Z" stroke="#FF66FF" stroke-width="2"/>
<path d="M264.248 101.391V164.137C267.394 164.135 269.757 164.116 271.636 163.918C273.692 163.702 275.054 163.282 276.147 162.52C277.019 161.913 277.775 161.156 278.383 160.285C279.145 159.192 279.565 157.829 279.781 155.774C279.999 153.7 280 151.038 280 147.385V133.616C280 125.725 279.984 122.046 278.669 118.72C277.354 115.394 274.849 112.699 269.452 106.942L264.248 101.391Z" stroke="#FF66FF" stroke-width="2"/>
<path d="M189.872 158.037V158.037C189.872 156.081 189.872 155.103 190.141 154.316C190.642 152.854 191.79 151.706 193.251 151.206C194.039 150.936 195.017 150.936 196.972 150.936H233.661C235.616 150.936 236.594 150.936 237.382 151.206C238.843 151.706 239.991 152.854 240.492 154.316C240.761 155.103 240.761 156.081 240.761 158.037V158.037" stroke="#FF66FF" stroke-width="2"/>
<path d="M189.872 134.367V134.367C189.872 132.411 189.872 131.434 190.141 130.646C190.642 129.184 191.79 128.036 193.251 127.536C194.039 127.266 195.017 127.266 196.972 127.266H233.661C235.616 127.266 236.594 127.266 237.382 127.536C238.843 128.036 239.991 129.184 240.492 130.646C240.761 131.434 240.761 132.411 240.761 134.367V134.367" stroke="#FF66FF" stroke-width="2"/>
<path d="M189.872 110.697V110.697C189.872 108.742 189.872 107.764 190.141 106.976C190.642 105.515 191.79 104.367 193.251 103.866C194.039 103.596 195.017 103.596 196.972 103.596H233.661C235.616 103.596 236.594 103.596 237.382 103.866C238.843 104.367 239.991 105.515 240.492 106.976C240.761 107.764 240.761 108.742 240.761 110.697V110.697" stroke="#FF66FF" stroke-width="2"/>
<path d="M257.615 25.3027H31.0001C29.0862 25.3027 27.7514 25.3049 26.7442 25.4403C25.7659 25.5718 25.2478 25.8124 24.8788 26.1814C24.5097 26.5504 24.2691 27.0685 24.1376 28.0469C24.0022 29.054 24.0001 30.3888 24.0001 32.3027V32.7706H264.615V32.3027C264.615 30.3888 264.613 29.054 264.477 28.0469C264.346 27.0685 264.105 26.5504 263.736 26.1814C263.367 25.8124 262.849 25.5718 261.871 25.4403C260.863 25.3049 259.529 25.3027 257.615 25.3027Z" stroke="#FF66FF" stroke-width="2"/>
<path d="M25.5322 26.28L31.7139 22.2405C39.1388 17.3887 42.8512 14.9628 47.0409 13.7153C51.2307 12.4678 55.6655 12.4678 64.535 12.4678H224.095C232.957 12.4678 237.388 12.4678 241.574 13.7132C245.761 14.9587 249.471 17.3807 256.892 22.2247L263.114 26.2859" stroke="#FF66FF" stroke-width="2"/>
<path d="M176.445 112.472C176.445 151.464 144.836 183.073 105.844 183.073C66.8523 183.073 35.2432 151.464 35.2432 112.472C35.2432 73.4807 66.8523 41.8716 105.844 41.8716C144.836 41.8716 176.445 73.4807 176.445 112.472Z" stroke="#FF66FF" stroke-width="2"/>
<rect x="32.2844" y="41.8716" width="147.119" height="142.385" rx="9" stroke="#FF66FF" stroke-width="2"/>
<mask id="mask0_281_657" style="mask-type:alpha" maskUnits="userSpaceOnUse" x="33" y="40" width="146" height="146">
<circle cx="105.844" cy="113.064" r="72.1927" fill="#FF66FF"/>
</mask>
<g mask="url(#mask0_281_657)">
<path d="M109.395 185.257C86.1201 158.837 95.9836 135.949 105.846 113.061M105.846 113.061L105.846 113.06M105.846 113.061L105.845 113.063M105.846 113.061L105.846 113.067M105.846 113.061L105.847 113.059M105.846 113.06L105.847 113.059M105.846 113.06L105.845 113.063M105.846 113.06L105.848 113.057M105.846 113.06L105.846 113.063L105.845 113.063M105.846 113.06V113.057M105.846 113.06C105.847 113.066 105.849 113.071 105.849 113.077M105.846 113.06C100.372 88.749 94.8963 64.4391 60.5405 56.7461M105.847 113.059L105.848 113.057M105.847 113.059C105.847 113.056 105.848 113.054 105.849 113.051M105.847 113.059L105.846 113.057M105.847 113.059C105.847 113.056 105.846 113.053 105.845 113.051M105.848 113.057C115.708 90.1725 125.565 67.2873 102.294 40.8716M105.848 113.057C114.088 89.5403 122.324 66.0233 97.2674 41.2952M105.848 113.057L105.849 113.051M114.423 184.833C89.3625 160.102 97.6042 136.583 105.845 113.063M105.845 113.063C99.2649 137.1 92.6842 161.137 119.408 184.06M105.845 113.063L105.846 113.067M105.845 113.063C105.845 113.068 105.844 113.073 105.844 113.077M105.845 113.063C106.145 137.983 106.446 162.903 138.453 177.572M105.845 113.063L105.847 113.064M105.845 113.063C113.003 136.936 120.158 160.808 154.97 166.086M105.845 113.063L105.844 113.062M105.845 113.063C114.65 136.378 123.455 159.693 158.549 162.53M105.845 113.063L105.848 113.067M105.845 113.063C122.093 131.96 138.342 150.858 172.29 141.521M105.845 113.063L105.845 113.064M105.845 113.063L105.843 113.063M105.845 113.063L105.847 113.065M105.845 113.063L105.851 113.065M105.845 113.063L105.843 113.062M105.845 113.063C105.843 113.062 105.84 113.061 105.838 113.06M105.845 113.063L105.842 113.064M105.849 113.051C112.428 89.0188 119.001 64.9869 92.2821 42.0683M105.849 113.051C110.736 88.6183 115.617 64.1863 87.3637 43.1874M124.329 182.941C96.0757 161.942 100.957 137.51 105.844 113.077M105.844 113.077C105.844 113.074 105.845 113.071 105.846 113.067M105.844 113.077C102.673 137.791 99.5081 162.505 129.157 181.482M105.844 113.077C105.845 113.075 105.846 113.072 105.848 113.07M105.844 113.077C91.4417 133.41 77.0448 153.744 94.314 184.419M105.844 113.077L105.846 113.072M105.844 113.077C92.8951 134.365 79.9515 155.654 99.3185 185.05M105.846 113.067C104.407 137.946 102.969 162.824 133.874 179.689M105.846 113.067L105.848 113.067M105.846 113.067L105.843 113.067M105.846 113.067L105.848 113.066M105.846 113.067C105.843 113.068 105.84 113.069 105.838 113.069M105.846 113.057C109.017 88.3413 112.184 63.6252 82.5334 44.6469M105.846 113.057L105.846 113.055M105.846 113.057L105.845 113.051M105.846 113.055C107.285 88.1789 108.72 63.3035 77.8182 46.44M105.846 113.055C105.547 88.139 105.243 63.224 73.2396 48.5572M142.874 175.14C109.921 162.74 107.884 137.902 105.847 113.064M105.847 113.064C105.848 113.068 105.849 113.072 105.849 113.077M105.847 113.064C116.256 135.707 126.665 158.351 161.871 158.733M105.847 113.064C105.849 113.068 105.851 113.072 105.853 113.076M105.847 113.064C123.373 130.781 140.899 148.499 174.113 136.816M105.847 113.064C105.85 113.067 105.854 113.069 105.857 113.072M105.847 113.064L105.847 113.065M105.847 113.064L105.844 113.062M105.847 113.064C130.661 115.371 155.476 117.677 173.41 87.3786M105.847 113.064C105.851 113.064 105.856 113.064 105.861 113.063M105.847 113.064L105.849 113.064M105.847 113.064L105.843 113.062M105.847 113.064L105.843 113.063M105.847 113.064L105.851 113.064M105.845 113.051C103.808 88.2176 101.766 63.3867 68.8193 50.9888M105.845 113.051C102.081 88.4201 98.3115 63.7921 64.5803 53.7226M147.115 172.405C113.383 162.336 109.614 137.708 105.849 113.077M105.849 113.077C111.323 137.385 116.801 161.69 151.153 169.382M105.844 113.062L105.844 113.061M105.844 113.062L105.843 113.058M105.844 113.062L105.843 113.06M105.844 113.062C105.849 113.066 105.853 113.069 105.857 113.072M105.844 113.062C86.0241 97.9574 66.203 82.854 34.94 99.0443M105.844 113.062L105.841 113.062M105.844 113.062C105.85 113.062 105.855 113.063 105.861 113.063M105.844 113.062L105.843 113.063M105.844 113.061L105.843 113.058M105.844 113.061C105.843 113.059 105.841 113.055 105.84 113.053M105.844 113.061L105.842 113.059M105.843 113.058C98.687 89.1893 91.5274 65.3225 56.7211 60.0451M105.843 113.058C97.0394 89.7465 88.2325 66.4371 53.1428 63.6006M105.843 113.058L105.84 113.053M105.84 113.053C95.4328 90.414 85.0207 67.7792 49.8208 67.3974M105.84 113.053C93.8789 91.1951 81.9132 69.3416 46.7723 71.4161M164.921 154.713C129.78 156.788 117.815 134.934 105.853 113.076M105.853 113.076C105.851 113.073 105.85 113.07 105.848 113.067M105.853 113.076C119.31 134.046 132.771 155.012 167.682 150.491M105.848 113.067C120.737 133.05 135.627 153.033 170.143 146.087M105.848 113.067L105.851 113.067M105.848 113.067L105.848 113.066M105.848 113.067C82.857 122.68 59.866 132.293 58.2558 167.463M105.848 113.067L105.849 113.066M105.848 113.067L105.846 113.069M105.848 113.067L105.844 113.07M105.848 113.067C87.531 129.964 69.2152 146.861 79.7309 180.461M105.848 113.067L105.846 113.072M105.843 113.06L105.842 113.059M105.843 113.06C105.841 113.058 105.839 113.056 105.837 113.055M105.842 113.059C92.3842 92.0875 78.9234 71.1179 44.0103 75.639M105.842 113.059L105.841 113.058M105.842 113.059L105.837 113.055M105.841 113.058C90.9532 93.0762 76.0629 73.0982 41.5508 80.0436M105.841 113.058C89.5956 94.1634 73.3479 75.2725 39.4043 84.6085M105.837 113.055C88.3146 95.3407 70.7889 77.6322 37.5812 89.3125M105.837 113.055C87.1216 96.6062 68.4032 80.1632 36.0911 94.1315M175.604 131.996C143.292 145.964 124.573 129.521 105.857 113.072M105.857 113.072C125.675 128.175 145.495 143.273 176.754 127.084M105.845 113.064L105.843 113.063M105.845 113.064L105.842 113.064M105.843 113.063L105.841 113.062M105.843 113.063C105.841 113.062 105.838 113.061 105.835 113.06M105.843 113.063L105.842 113.064M105.843 113.063L105.841 113.063M105.843 113.063C80.951 114.233 56.0599 115.404 42.518 147.902M105.843 113.063C105.841 113.063 105.839 113.063 105.837 113.063M105.841 113.062L105.835 113.06M105.847 113.065L105.851 113.065M105.847 113.065C105.851 113.066 105.856 113.068 105.86 113.069M105.847 113.065L105.848 113.066M105.847 113.065L105.849 113.064M105.835 113.06C82.6224 104.004 59.4091 94.9549 33.8231 119.132M105.86 113.069C105.857 113.068 105.854 113.067 105.851 113.065M105.86 113.069C129.648 120.483 153.436 127.892 177.274 101.988M105.851 113.065C130.101 118.803 154.352 124.539 176.327 97.0323M105.851 113.065L105.851 113.067M105.851 113.065L105.848 113.066M105.851 113.065L105.852 113.066M105.851 113.065L105.849 113.064M105.851 113.065L105.849 113.066M105.851 113.065L105.852 113.064M105.851 113.065L105.851 113.064M105.842 113.064L105.841 113.063M105.842 113.064C105.839 113.063 105.837 113.063 105.834 113.063M105.842 113.064C81.2521 109.032 56.6623 105.004 36.661 133.975M105.842 113.064L105.837 113.063M105.841 113.063C82.0511 105.649 58.2605 98.2375 34.4216 124.143M105.841 113.063L105.839 113.063C81.5904 107.326 57.3421 101.593 35.3687 129.098M105.841 113.063L105.834 113.063M105.834 113.063C80.9242 112.493 56.0158 111.929 40.2419 143.399M105.861 113.063C130.75 111.894 155.638 110.72 169.178 78.2257M177.562 122.106C147.504 140.439 126.677 126.753 105.851 113.067M105.851 113.067L105.849 113.066M105.851 113.067C127.581 125.267 149.312 137.466 178.018 117.081M105.851 113.067C128.378 123.721 150.908 134.374 178.123 112.037M105.851 113.067L105.852 113.066M105.851 113.067L105.849 113.068M105.849 113.066L105.848 113.066M105.849 113.066C105.848 113.068 105.847 113.071 105.846 113.072M105.849 113.066L105.848 113.07M105.849 113.066L105.849 113.068M105.848 113.066L105.843 113.067M105.843 113.062C85.0187 99.3775 64.1927 85.6966 34.1374 104.027M105.843 113.062C84.1147 100.863 62.3852 88.6684 33.6817 109.051M105.843 113.062L105.838 113.06M105.838 113.06C83.312 102.408 60.7875 91.7611 33.5774 114.095M177.875 106.997C152.289 131.175 129.075 122.125 105.862 113.07M105.862 113.07C105.859 113.068 105.857 113.067 105.854 113.066M105.862 113.07C105.859 113.068 105.856 113.067 105.852 113.066M105.854 113.066L105.852 113.066M105.854 113.066L105.857 113.066M105.854 113.066L105.856 113.065M105.854 113.066L105.854 113.065M105.852 113.066L105.854 113.064M105.852 113.066L105.852 113.064M166.597 73.8954C155.359 107.247 130.623 110.161 105.881 113.063M105.881 113.063C105.878 113.063 105.875 113.064 105.872 113.064M105.881 113.063C105.875 113.063 105.868 113.064 105.862 113.064M105.872 113.064C105.868 113.065 105.864 113.065 105.86 113.065M105.872 113.064C130.779 113.634 155.684 114.194 171.456 82.7278M105.872 113.064C105.869 113.064 105.865 113.064 105.862 113.064M105.86 113.065L105.857 113.066M105.86 113.065L105.856 113.065M105.857 113.066C130.448 117.097 155.038 121.126 175.04 92.1547M105.843 113.067C81.0947 115.97 56.3472 118.877 45.106 152.238M105.843 113.067C81.3573 117.689 56.8728 122.315 47.9861 156.379M105.843 113.067L105.838 113.069M163.716 69.7528C154.83 103.816 130.347 108.442 105.862 113.064M105.862 113.064L105.856 113.065M105.862 113.064L105.859 113.064M105.862 113.064L105.857 113.064M105.856 113.065L105.857 113.064M105.856 113.065L105.854 113.065M105.856 113.065L105.855 113.063M160.554 65.8217C154.065 100.423 129.963 106.745 105.859 113.064M105.859 113.064L105.857 113.064M105.857 113.064L105.854 113.065M105.857 113.064L105.86 113.062M105.857 113.064L105.855 113.063M105.854 113.065L105.854 113.064M105.838 113.069C81.7356 119.388 57.6368 125.711 51.1484 160.31M105.838 113.069C82.235 121.053 58.6358 129.043 54.5767 164.01M157.124 62.1201C153.065 97.0875 129.466 105.076 105.863 113.061M105.863 113.061L105.861 113.061M105.863 113.061C128.851 103.449 151.836 93.8338 153.446 58.6683M105.863 113.061L105.86 113.062M105.861 113.061C105.859 113.062 105.857 113.063 105.855 113.063M105.861 113.061C128.124 101.87 150.383 90.6743 149.536 55.4813M105.861 113.061L105.86 113.062M105.855 113.063L105.854 113.064M105.855 113.063L105.86 113.062M105.855 113.063C127.284 100.345 148.712 87.625 145.412 52.5738M105.854 113.064L105.852 113.064M105.854 113.064C126.344 98.8814 146.833 84.6975 141.096 49.9614M105.854 113.064C105.855 113.062 105.858 113.059 105.86 113.057M105.854 113.064L105.853 113.063M105.852 113.064L105.853 113.063M105.852 113.064C105.854 113.061 105.855 113.057 105.857 113.054M105.852 113.064L105.851 113.064M105.846 113.069L105.844 113.07M105.846 113.069C105.844 113.07 105.842 113.072 105.84 113.074M105.844 113.07C83.5808 124.262 61.3198 135.457 62.1667 170.651M105.844 113.07C84.4156 125.788 62.9897 138.509 66.2895 173.558M105.844 113.07L105.84 113.074M105.84 113.074C85.352 127.254 64.8691 141.439 70.6055 176.17M105.84 113.074C86.391 128.649 66.9474 144.228 75.0925 178.474M136.608 47.656C144.753 81.903 125.309 97.4816 105.86 113.057M105.86 113.057C105.858 113.059 105.856 113.06 105.854 113.062M105.86 113.057C124.175 96.1629 142.485 79.2658 131.971 45.6703M105.86 113.057C105.858 113.059 105.855 113.061 105.853 113.063M105.86 113.057C122.952 94.9262 140.039 76.7934 127.207 44.0128M105.854 113.062L105.853 113.063M105.854 113.062C121.641 93.7811 137.426 74.4996 122.337 42.6911M105.853 113.063C120.257 92.7275 134.659 72.3916 117.388 41.7125M105.849 113.068L105.848 113.07M105.849 113.068C94.4157 135.211 82.9833 157.353 104.357 185.33M105.848 113.07L105.846 113.072M105.846 113.072C88.7532 131.204 71.6637 149.337 84.4966 182.119M105.846 113.072C90.0596 132.352 74.2765 151.634 89.3649 183.44M112.381 41.0812C131.748 70.477 118.805 91.7663 105.857 113.054M105.857 113.054C105.855 113.057 105.853 113.06 105.851 113.064M105.857 113.054C117.289 90.9149 128.715 68.7745 107.345 40.8013M105.837 113.063C81.027 110.757 56.2187 108.457 38.2881 138.75" stroke="#FF66FF" stroke-width="0.5"/>
</g>
<circle cx="105.844" cy="113.064" r="71.1927" stroke="#FF66FF" stroke-width="2"/>
<path d="M165.202 113.064C165.202 145.847 138.627 172.422 105.844 172.422C73.0617 172.422 46.4863 145.847 46.4863 113.064C46.4863 80.2819 73.0617 53.7065 105.844 53.7065C138.627 53.7065 165.202 80.2819 165.202 113.064Z" stroke="#FF66FF" stroke-width="2"/>
<circle cx="105.844" cy="113.064" r="47.5229" stroke="#FF66FF" stroke-width="2"/>
<circle cx="105.844" cy="113.064" r="35.6881" stroke="#FF66FF" stroke-width="2"/>
<circle cx="105.844" cy="113.064" r="23.8532" stroke="#FF66FF" stroke-width="2"/>
<circle cx="105.844" cy="113.064" r="12.0183" fill="#141414" stroke="#FF66FF" stroke-width="2"/>
<path d="M240.945 188.624H225.193V196.193C225.193 198.106 225.195 199.441 225.33 200.448C225.462 201.427 225.702 201.945 226.071 202.314C226.44 202.683 226.958 202.924 227.937 203.055C228.944 203.19 230.279 203.193 232.193 203.193H233.945C235.859 203.193 237.194 203.19 238.201 203.055C239.179 202.924 239.697 202.683 240.066 202.314C240.435 201.945 240.676 201.427 240.807 200.448C240.943 199.441 240.945 198.106 240.945 196.193V188.624Z" stroke="#FF66FF" stroke-width="2"/>
<ellipse cx="233.069" cy="197.092" rx="4.1422" ry="1.18348" fill="#FF66FF"/>
<path d="M63.4219 188.624H47.6696V196.193C47.6696 198.106 47.6717 199.441 47.8071 200.448C47.9386 201.427 48.1792 201.945 48.5483 202.314C48.9173 202.683 49.4354 202.924 50.4137 203.055C51.4209 203.19 52.7557 203.193 54.6696 203.193H56.4219C58.3358 203.193 59.6706 203.19 60.6777 203.055C61.6561 202.924 62.1742 202.683 62.5432 202.314C62.9122 201.945 63.1528 201.427 63.2843 200.448C63.4198 199.441 63.4219 198.106 63.4219 196.193V188.624Z" stroke="#FF66FF" stroke-width="2"/>
<ellipse cx="55.5458" cy="197.092" rx="4.1422" ry="1.18348" fill="#FF66FF"/>
<mask id="path-23-inside-1_281_657" fill="white">
<path fill-rule="evenodd" clip-rule="evenodd" d="M263.248 79.3466C264.345 79.0811 265.259 78.6939 266.068 78.1295C267.036 77.4547 267.877 76.6138 268.552 75.6459C270.349 73.0685 270.349 69.4371 270.349 62.1743V57.8729C270.349 50.0597 270.349 46.153 268.947 42.6092C267.918 40.0062 266.203 37.7776 263.248 34.519V79.3466Z"/>
</mask>
<path d="M263.248 79.3466H261.248V81.8883L263.718 81.2905L263.248 79.3466ZM266.068 78.1295L267.212 79.7701L267.212 79.7701L266.068 78.1295ZM268.552 75.6459L266.911 74.502L266.911 74.502L268.552 75.6459ZM268.947 42.6092L270.807 41.8737L270.807 41.8737L268.947 42.6092ZM263.248 34.519L264.729 33.1754L261.248 29.3369V34.519H263.248ZM263.718 81.2905C265.009 80.9781 266.162 80.5022 267.212 79.7701L264.924 76.4889C264.355 76.8856 263.681 77.184 262.777 77.4027L263.718 81.2905ZM267.212 79.7701C268.373 78.9603 269.382 77.9513 270.192 76.7898L266.911 74.502C266.371 75.2764 265.699 75.949 264.924 76.4889L267.212 79.7701ZM270.192 76.7898C271.363 75.1102 271.871 73.1782 272.113 70.8761C272.351 68.6095 272.349 65.7626 272.349 62.1743H268.349C268.349 65.8488 268.346 68.449 268.135 70.4581C267.928 72.4319 267.537 73.6042 266.911 74.502L270.192 76.7898ZM272.349 62.1743V57.8729H268.349V62.1743H272.349ZM272.349 57.8729C272.349 50.2148 272.381 45.8542 270.807 41.8737L267.087 43.3447C268.316 46.4519 268.349 49.9045 268.349 57.8729H272.349ZM270.807 41.8737C269.635 38.9101 267.703 36.4547 264.729 33.1754L261.766 35.8627C264.703 39.1005 266.201 41.1023 267.087 43.3447L270.807 41.8737ZM261.248 34.519V79.3466H265.248V34.519H261.248Z" fill="#FF66FF" mask="url(#path-23-inside-1_281_657)"/>
<path d="M23 6.55054L281 195.908M23 195.908L281 6.55054" stroke="#141414" stroke-width="2"/>
<path d="M23 7.73389L281 197.092M23 197.092L281 7.73389" stroke="#141414" stroke-width="2"/>
<path d="M23 8.91748L281 198.275M23 198.275L281 8.91748" stroke="#141414" stroke-width="2"/>
<path d="M23 10.1008L281 199.459M23 199.459L281 10.1008" stroke="#141414" stroke-width="2"/>
<path d="M23 11.2844L281 200.642M23 200.642L281 11.2844" stroke="#141414" stroke-width="2"/>
<path d="M23 5.36694L281 194.725M23 194.725L281 5.36694" stroke="#32FFBD" stroke-width="2"/>
</svg>
