<svg width="304" height="280" viewBox="0 0 304 280" fill="none" xmlns="http://www.w3.org/2000/svg">
<g opacity="0.5">
<rect width="19" height="129" transform="matrix(-0.984808 0.173648 0.173648 0.984808 150.595 76.2527)" fill="url(#paint0_linear_241_300)"/>
</g>
<g opacity="0.8" filter="url(#filter0_f_241_300)">
<path d="M150.304 80.3656L283.508 12.0054L319.974 218.815L171.315 199.527L162.953 200.494L142.425 81.7548L150.304 80.3656Z" fill="url(#paint1_linear_241_300)"/>
</g>
<mask id="mask0_241_300" style="mask-type:alpha" maskUnits="userSpaceOnUse" x="-9" y="82" width="171" height="146">
<path d="M140.454 82.1023L-8.25019 108.323L12.7612 227.485L161.465 201.264L140.454 82.1023Z" fill="url(#paint2_linear_241_300)"/>
</mask>
<g mask="url(#mask0_241_300)">
<g style="mix-blend-mode:screen" opacity="0.5" filter="url(#filter1_f_241_300)">
<path d="M140.454 82.1023L-8.25019 108.323L12.7612 227.485L161.465 201.264L140.454 82.1023Z" fill="url(#paint3_linear_241_300)"/>
</g>
</g>
<rect x="128.402" y="128.907" width="2" height="2" transform="rotate(-10 128.402 128.907)" fill="black"/>
<rect x="109.576" y="120.041" width="2" height="2" transform="rotate(-10 109.576 120.041)" fill="black"/>
<rect x="91.1571" y="101.965" width="2" height="2" transform="rotate(-10 91.1571 101.965)" fill="black"/>
<rect x="53.4989" y="136.021" width="2" height="2" transform="rotate(-10 53.4989 136.021)" fill="black"/>
<rect x="28.4197" y="108.965" width="2" height="2" transform="rotate(-10 28.4197 108.965)" fill="black"/>
<rect x="71.6255" y="175.473" width="2" height="2" transform="rotate(-10 71.6255 175.473)" fill="black"/>
<rect x="131.005" y="160.941" width="2" height="2" transform="rotate(-10 131.005 160.941)" fill="black"/>
<rect x="106.037" y="163.313" width="2" height="2" transform="rotate(-10 106.037 163.313)" fill="black"/>
<rect x="110.318" y="199.113" width="2" height="2" transform="rotate(-10 110.318 199.113)" fill="black"/>
<rect x="43.9912" y="191.516" width="2" height="2" transform="rotate(-10 43.9912 191.516)" fill="black"/>
<path d="M132.853 170.955L132.858 182.944L141.338 174.469L132.864 182.95L144.853 182.955L132.864 182.959L141.338 191.44L132.858 182.966L132.853 194.955L132.849 182.966L124.368 191.44L132.842 182.959L120.853 182.955L132.842 182.95L124.368 174.469L132.849 182.944L132.853 170.955Z" stroke="#0F0F0F" stroke-width="2"/>
<path d="M87.2427 135.875L76.9731 148.126L92.715 150.91L76.9703 148.142L82.4304 163.167L76.9553 148.147L66.6735 160.388L76.943 148.137L61.2011 145.353L76.9458 148.121L71.4857 133.097L76.9608 148.116L87.2427 135.875Z" stroke="#0F0F0F" stroke-width="2"/>
<path d="M60.452 99.9903L58.3759 111.799L69.6445 107.704L58.38 111.81L67.5607 119.521L58.3723 111.819L56.2844 123.626L58.3605 111.817L47.0919 115.912L58.3564 111.806L49.1757 104.095L58.3641 111.797L60.452 99.9903Z" stroke="#0F0F0F" stroke-width="2"/>
<path d="M26.1175 159.862L32.1175 170.242L38.1175 159.862L32.1279 170.248L44.1175 170.254L32.1279 170.26L38.1175 180.646L32.1175 170.266L26.1175 180.646L32.1071 170.26L20.1175 170.254L32.1071 170.248L26.1175 159.862Z" stroke="#0F0F0F" stroke-width="2"/>
<path d="M64.8448 188.854L66.9327 200.66L76.1211 192.958L66.9404 200.669L78.2049 204.776L66.9363 200.681L69.0123 212.489L66.9245 200.683L57.736 208.385L66.9168 200.673L55.6523 196.567L66.9209 200.662L64.8448 188.854Z" stroke="#0F0F0F" stroke-width="2"/>
<path d="M110.196 137.317L112.934 144.827L119.236 139.91L112.94 144.835L119.564 149.308L112.935 144.842L110.727 152.525L112.926 144.84L104.937 145.114L112.925 144.83L110.196 137.317Z" stroke="#0F0F0F" stroke-width="1.75"/>
<path d="M25.3011 126.647L31.4275 131.782L34.4263 124.372L31.4363 131.785L39.41 132.347L31.4356 131.794L33.3648 139.552L31.4265 131.797L24.6451 136.029L31.4215 131.789L25.3011 126.647Z" stroke="#0F0F0F" stroke-width="1.75"/>
<path d="M88.9533 112.507L89.9978 118.411L95.2929 115.599L90.0011 118.417L94.3112 122.584L89.9962 118.422L87.3649 123.809L89.9899 118.419L84.0536 117.581L89.9909 118.412L88.9533 112.507Z" stroke="#0F0F0F" stroke-width="1.5"/>
<path d="M95.9537 175.245L97.3463 183.116L104.406 179.368L97.3508 183.124L103.098 188.681L97.3442 183.131L93.8359 190.314L97.3358 183.127L89.4207 182.01L97.3371 183.118L95.9537 175.245Z" stroke="#0F0F0F" stroke-width="1.75"/>
<path d="M114.327 92.9253L114.332 100.919L121.935 98.4532L114.335 100.928L119.029 107.397L114.327 100.933L109.625 107.397L114.319 100.928L106.718 98.4532L114.322 100.919L114.327 92.9253Z" stroke="#0F0F0F" stroke-width="1.75"/>
<rect width="5" height="136" rx="2.5" transform="matrix(-0.984808 0.173648 0.173648 0.984808 136.288 75.7292)" fill="#FF66FF"/>
<rect width="5" height="136" rx="2.5" transform="matrix(-0.984808 0.173648 0.173648 0.984808 143.182 74.5137)" fill="#94BBFF"/>
<rect width="5" height="136" rx="2.5" transform="matrix(-0.984808 0.173648 0.173648 0.984808 150.075 73.2981)" fill="#32FFBD"/>
<defs>
<filter id="filter0_f_241_300" x="132.425" y="2.00537" width="197.549" height="226.81" filterUnits="userSpaceOnUse" color-interpolation-filters="sRGB">
<feFlood flood-opacity="0" result="BackgroundImageFix"/>
<feBlend mode="normal" in="SourceGraphic" in2="BackgroundImageFix" result="shape"/>
<feGaussianBlur stdDeviation="5" result="effect1_foregroundBlur_241_300"/>
</filter>
<filter id="filter1_f_241_300" x="-18.2502" y="72.1023" width="189.716" height="165.382" filterUnits="userSpaceOnUse" color-interpolation-filters="sRGB">
<feFlood flood-opacity="0" result="BackgroundImageFix"/>
<feBlend mode="normal" in="SourceGraphic" in2="BackgroundImageFix" result="shape"/>
<feGaussianBlur stdDeviation="5" result="effect1_foregroundBlur_241_300"/>
</filter>
<linearGradient id="paint0_linear_241_300" x1="19" y1="58.5" x2="-0.5" y2="58.5" gradientUnits="userSpaceOnUse">
<stop stop-color="#FF66FF"/>
<stop offset="1" stop-color="#32FFBD"/>
</linearGradient>
<linearGradient id="paint1_linear_241_300" x1="162.893" y1="151.764" x2="303.72" y2="126.933" gradientUnits="userSpaceOnUse">
<stop stop-color="#32FFBE"/>
<stop offset="0.0666667" stop-color="#32FFBE" stop-opacity="0.991353"/>
<stop offset="0.133333" stop-color="#32FFBE" stop-opacity="0.96449"/>
<stop offset="0.2" stop-color="#32FFBE" stop-opacity="0.91834"/>
<stop offset="0.266667" stop-color="#32FFBE" stop-opacity="0.852589"/>
<stop offset="0.333333" stop-color="#32FFBE" stop-opacity="0.768225"/>
<stop offset="0.4" stop-color="#32FFBE" stop-opacity="0.668116"/>
<stop offset="0.466667" stop-color="#32FFBE" stop-opacity="0.557309"/>
<stop offset="0.533333" stop-color="#32FFBE" stop-opacity="0.442691"/>
<stop offset="0.6" stop-color="#32FFBE" stop-opacity="0.331884"/>
<stop offset="0.666667" stop-color="#32FFBE" stop-opacity="0.231775"/>
<stop offset="0.733333" stop-color="#32FFBE" stop-opacity="0.147411"/>
<stop offset="0.8" stop-color="#32FFBE" stop-opacity="0.0816599"/>
<stop offset="0.866667" stop-color="#32FFBE" stop-opacity="0.03551"/>
<stop offset="0.933333" stop-color="#32FFBE" stop-opacity="0.01"/>
<stop offset="1" stop-color="#32FFBE" stop-opacity="0"/>
</linearGradient>
<linearGradient id="paint2_linear_241_300" x1="66.1018" y1="95.2126" x2="87.1133" y2="214.374" gradientUnits="userSpaceOnUse">
<stop stop-color="white" stop-opacity="0"/>
<stop offset="0.333333" stop-color="white"/>
<stop offset="0.666667" stop-color="white"/>
<stop offset="1" stop-color="white" stop-opacity="0"/>
</linearGradient>
<linearGradient id="paint3_linear_241_300" x1="161.467" y1="201.264" x2="12.7612" y2="227.485" gradientUnits="userSpaceOnUse">
<stop stop-color="#FF66FF"/>
<stop offset="1" stop-color="#FF66FF" stop-opacity="0"/>
</linearGradient>
</defs>
</svg>
