<svg width="400" height="400" viewBox="0 0 400 400" fill="none" xmlns="http://www.w3.org/2000/svg">
<path opacity="0.38" fill-rule="evenodd" clip-rule="evenodd" d="M28.5532 199.75C28.5532 105.201 105.201 28.5531 199.75 28.5531C294.3 28.5531 370.947 105.201 370.947 199.75C370.947 294.299 294.3 370.947 199.75 370.947C105.201 370.947 28.5532 294.299 28.5532 199.75ZM199.75 28C104.895 28 28.0001 104.895 28.0001 199.75C28.0001 294.605 104.895 371.5 199.75 371.5C294.605 371.5 371.5 294.605 371.5 199.75C371.5 104.895 294.605 28 199.75 28ZM199.75 45.4239C114.518 45.4239 45.4234 114.518 45.4234 199.75C45.4234 284.982 114.518 354.076 199.75 354.076C284.981 354.076 354.076 284.982 354.076 199.75C354.076 114.518 284.981 45.4239 199.75 45.4239ZM44.3171 199.75C44.3171 113.907 113.907 44.3176 199.75 44.3176C285.592 44.3176 355.182 113.907 355.182 199.75C355.182 285.593 285.592 355.182 199.75 355.182C113.907 355.182 44.3171 285.593 44.3171 199.75ZM62.2956 199.75C62.2956 123.836 123.836 62.2947 199.751 62.2947C275.665 62.2947 337.206 123.836 337.206 199.75C337.206 275.664 275.665 337.205 199.751 337.205C123.836 337.205 62.2956 275.664 62.2956 199.75ZM199.751 60.6353C122.92 60.6353 60.6362 122.919 60.6362 199.75C60.6362 276.581 122.92 338.865 199.751 338.865C276.582 338.865 338.866 276.581 338.866 199.75C338.866 122.919 276.582 60.6353 199.751 60.6353ZM199.75 79.1655C133.153 79.1655 79.1658 133.153 79.1658 199.75C79.1658 266.347 133.153 320.335 199.75 320.335C266.347 320.335 320.335 266.347 320.335 199.75C320.335 133.153 266.347 79.1655 199.75 79.1655ZM76.9532 199.75C76.9532 131.931 131.931 76.9529 199.75 76.9529C267.569 76.9529 322.547 131.931 322.547 199.75C322.547 267.569 267.569 322.547 199.75 322.547C131.931 322.547 76.9532 267.569 76.9532 199.75ZM96.036 199.75C96.036 142.47 142.47 96.0362 199.75 96.0362C257.029 96.0362 303.464 142.47 303.464 199.75C303.464 257.03 257.029 303.464 199.75 303.464C142.47 303.464 96.036 257.03 96.036 199.75ZM199.75 93.2705C140.943 93.2705 93.2703 140.943 93.2703 199.75C93.2703 258.557 140.943 306.229 199.75 306.229C258.557 306.229 306.229 258.557 306.229 199.75C306.229 140.943 258.557 93.2705 199.75 93.2705ZM112.926 199.75C112.926 151.799 151.798 112.926 199.749 112.926C247.701 112.926 286.573 151.799 286.573 199.75C286.573 247.701 247.701 286.574 199.749 286.574C151.798 286.574 112.926 247.701 112.926 199.75ZM199.749 109.608C149.965 109.608 109.607 149.966 109.607 199.75C109.607 249.534 149.965 289.892 199.749 289.892C249.534 289.892 289.892 249.534 289.892 199.75C289.892 149.966 249.534 109.608 199.749 109.608Z" fill="url(#paint0_radial_279_644)"/>
<defs>
<radialGradient id="paint0_radial_279_644" cx="0" cy="0" r="1" gradientUnits="userSpaceOnUse" gradientTransform="translate(199.75 199.75) rotate(90) scale(171.75)">
<stop offset="0.526779" stop-color="#FF66FF"/>
<stop offset="1" stop-color="#FF66FF" stop-opacity="0"/>
</radialGradient>
</defs>
</svg>
