<svg width="912" height="349" viewBox="0 0 912 349" fill="none" xmlns="http://www.w3.org/2000/svg">
<path d="M0 340H62.72V158.112L90.944 340H117.376L145.6 158.112V340H209.216V6.688H125.888L106.624 162.592L88.256 6.688H0V340Z" fill="black"/>
<path d="M318.976 340H390.656L344.064 6.688H253.12L210.56 340H274.624L279.552 291.168H313.6L318.976 340ZM296.576 124.064L306.88 225.312H286.272L296.576 124.064Z" fill="black"/>
<path d="M489.475 340H563.395V6.688H489.475V127.648H463.939V6.688H390.019V340H463.939V205.6H489.475V340Z" fill="black"/>
<path d="M573.664 340H646.688V75.68H710.304V6.688H573.664V340Z" fill="black"/>
<path d="M897.155 96.288C897.155 39.392 873.411 2.20801 814.275 2.20801H799.939C741.251 2.20801 717.059 38.944 717.059 96.288V254.432C717.059 312.224 746.179 344.928 800.387 344.928H814.723C865.347 344.928 897.155 312.224 897.155 254.432V96.288ZM820.547 259.36C820.547 269.664 816.963 275.936 807.555 275.936C797.251 275.936 793.667 269.664 793.667 259.36V88.672C793.667 76.128 796.803 69.856 807.107 69.856C816.067 69.856 820.547 76.128 820.547 88.672V259.36Z" fill="black"/>
</svg>
