<svg width="898" height="343" viewBox="0 0 898 343" fill="none" xmlns="http://www.w3.org/2000/svg">
	<path d="M0.0640005 338H62.784V156.112L91.008 338H117.44L145.664 156.112V338H209.28V4.68799H125.952L106.688 160.592L88.32 4.68799H0.0640005V338ZM319.04 338H390.72L344.128 4.68799H253.184L210.624 338H274.688L279.616 289.168H313.664L319.04 338ZM296.64 122.064L306.944 223.312H286.336L296.64 122.064ZM489.539 338H563.459V4.68799H489.539V125.648H464.003V4.68799H390.083V338H464.003V203.6H489.539V338ZM573.728 338H646.752V73.68H710.368V4.68799H573.728V338ZM897.219 94.288C897.219 37.392 873.475 0.207996 814.339 0.207996H800.003C741.315 0.207996 717.123 36.944 717.123 94.288V252.432C717.123 310.224 746.243 342.928 800.451 342.928H814.787C865.411 342.928 897.219 310.224 897.219 252.432V94.288ZM820.611 257.36C820.611 267.664 817.027 273.936 807.619 273.936C797.315 273.936 793.731 267.664 793.731 257.36V86.672C793.731 74.128 796.867 67.856 807.171 67.856C816.131 67.856 820.611 74.128 820.611 86.672V257.36Z" fill="black" />
</svg>
