<svg xmlns="http://www.w3.org/2000/svg" fill="none" viewBox="0 0 150 40"><path fill="#fff" fill-rule="evenodd" d="M24.99 39.373C33.623 37.156 40 29.323 40 20 40 10.678 33.623 2.844 24.99.627A20.049 20.049 0 0 0 20 0C8.955 0 0 8.954 0 20s8.955 20 20 20a20.05 20.05 0 0 0 4.99-.627ZM5 20C15.835 20 24.658 11.382 24.99.627v38.746C24.658 28.618 15.835 20 5 20Z" clip-rule="evenodd"/><path fill="#fff" d="M51.6 26h10.04v-1.94h-7.76V19.5h7.32v-1.92h-7.32v-4.14h7.76V11.5H51.6V26Zm14.556-14.5h-2.08V26h2.08V11.5Zm7.343 12.98c-1.7 0-2.92-1.22-3.14-3.22h8.2c.22-3.5-1.72-6.22-5.04-6.22-3.06 0-5.3 2.22-5.3 5.56 0 3.12 1.9 5.66 5.36 5.66 2.72 0 4.36-1.64 4.84-3.42h-2.1c-.46 1.02-1.3 1.64-2.82 1.64Zm0-7.74c1.7 0 2.84 1.3 2.9 2.88h-6c.3-2.06 1.48-2.88 3.1-2.88Zm11.658-1.7c-3.18 0-5.2 2.42-5.2 5.6 0 3.26 1.94 5.62 5.06 5.62 2.38 0 4.46-1.58 4.9-3.84h-2.1c-.3 1.28-1.42 2.06-2.76 2.06-1.5 0-2.88-1.2-2.88-3.86 0-2.62 1.38-3.8 2.88-3.8 1.36 0 2.46.84 2.68 2.06h2.08c-.32-2.1-2.2-3.84-4.66-3.84Zm7.132.2h-1.64v1.58h1.64v6.42c0 2.22.48 2.76 2.66 2.76h1.52v-1.66h-.88c-1.04 0-1.22-.28-1.22-1.38v-6.14h2.12v-1.58h-2.12v-2.76h-2.08v2.76Zm11.82-.02c-.18-.02-.4-.02-.58-.02-1.36.02-2.42.72-2.98 1.94v-1.9h-2.04V26h2.08v-5.64c0-2.26.84-3.04 2.44-3.04.34 0 .7.02 1.08.06v-2.16Zm2.931 5.44c0-2.72 1.46-3.86 3.02-3.86 1.6 0 3.04 1.2 3.04 3.86 0 2.62-1.44 3.84-3.04 3.84-1.56 0-3.02-1.2-3.02-3.84Zm3.02-5.62c-2.54 0-5.22 1.72-5.22 5.62 0 3.88 2.68 5.6 5.22 5.6 2.56 0 5.24-1.72 5.24-5.6 0-3.9-2.68-5.62-5.24-5.62Zm9.397-3.54h-2.08V26h2.08V11.5Zm9.442 14.5h2.1V15.24h-2.08v5.84c0 2.14-.84 3.42-2.6 3.42-1.88 0-2.14-1.44-2.14-2.98v-6.28h-2.08v6.84c0 2.62.98 4.18 3.52 4.18 1.62 0 2.66-.68 3.28-1.78V26Zm13.604-10.76h-2.3l-2.52 3.52-2.48-3.52h-2.46l3.7 5.26-3.94 5.5h2.34l2.74-3.88 2.74 3.88h2.48l-3.98-5.62 3.68-5.14Z"/></svg>