<svg width="24" height="18" viewBox="0 0 24 18" fill="none" xmlns="http://www.w3.org/2000/svg">
<path fill-rule="evenodd" clip-rule="evenodd" d="M3.49343 1.83388C3.40767 1.80897 3.28287 1.80016 2.65896 1.80016H2V0.00015822H2.65896L2.76037 7.81111e-05C3.22273 -0.000472517 3.62953 -0.000956924 3.99538 0.105278C4.72554 0.317301 5.32946 0.832738 5.65357 1.52052C5.72389 1.66974 5.77565 1.82968 5.8176 2.00016H18.1095L18.1357 2.00016C18.5664 2.00015 18.9285 2.00014 19.2241 2.01756C19.5291 2.03553 19.8304 2.0746 20.1226 2.18391C21.1188 2.55648 21.8311 3.44445 21.9787 4.49771C22.022 4.80674 21.9948 5.10928 21.9462 5.41099C21.8991 5.70326 21.8205 6.05675 21.7271 6.47715L21.7271 6.47721L21.7214 6.5028L21.0876 9.35465L21.0627 9.46683C20.9224 10.1003 20.8146 10.5867 20.596 10.9976C20.1579 11.8205 19.4012 12.4275 18.5029 12.6766C18.0543 12.8009 17.5561 12.8006 16.9073 12.8002L16.7924 12.8002H9.4872L9.36488 12.8002C8.67892 12.8007 8.15301 12.801 7.68559 12.6653C6.74878 12.3933 5.97394 11.7319 5.5581 10.8495C5.35062 10.4092 5.26833 9.88978 5.16101 9.21227L5.14184 9.09147L4.18971 3.10663C4.09169 2.49047 4.06337 2.36861 4.0253 2.28782C3.92134 2.06721 3.72763 1.90188 3.49343 1.83388ZM6.12268 3.80016L6.91949 8.80866C7.05551 9.66364 7.10282 9.90491 7.18637 10.0822C7.38205 10.4975 7.74668 10.8087 8.18754 10.9367C8.37576 10.9913 8.62146 11.0002 9.4872 11.0002H16.7924C17.6099 11.0002 17.8412 10.9921 18.022 10.942C18.4448 10.8248 18.8009 10.5392 19.007 10.1519C19.0952 9.98622 19.1531 9.76222 19.3305 8.96418L19.9642 6.11233C20.0648 5.65956 20.1315 5.35814 20.1691 5.12453C20.2062 4.89445 20.203 4.79674 20.1961 4.74751C20.1401 4.34799 19.87 4.01118 19.4921 3.86986C19.4455 3.85244 19.3508 3.82815 19.1182 3.81444C18.882 3.80052 18.5733 3.80016 18.1095 3.80016H6.12268ZM7 16.1502C7 15.1837 7.7835 14.4002 8.75 14.4002C9.7165 14.4002 10.5 15.1837 10.5 16.1502C10.5 17.1167 9.7165 17.9002 8.75 17.9002C7.7835 17.9002 7 17.1167 7 16.1502ZM17.25 14.4002C16.2835 14.4002 15.5 15.1837 15.5 16.1502C15.5 17.1167 16.2835 17.9002 17.25 17.9002C18.2165 17.9002 19 17.1167 19 16.1502C19 15.1837 18.2165 14.4002 17.25 14.4002Z" fill="white"/>
</svg>
