<svg xmlns="http://www.w3.org/2000/svg" fill="none" viewBox="0 0 24 24"><path fill="#fff" fill-rule="evenodd" d="M3.493 5.834c-.085-.025-.21-.034-.834-.034H2V4h.76c.463 0 .87-.001 1.235.105a2.65 2.65 0 0 1 1.659 1.416c.07.149.122.309.164.48h12.318c.43 0 .793 0 1.088.017.305.018.606.057.899.166a2.9 2.9 0 0 1 1.856 2.314 3.04 3.04 0 0 1-.033.913c-.047.292-.126.646-.219 1.066l-.006.026-.633 2.852-.025.112c-.14.633-.248 1.12-.467 1.53a3.4 3.4 0 0 1-2.093 1.68c-.449.124-.947.124-1.596.123H9.365c-.686 0-1.212.001-1.68-.135a3.4 3.4 0 0 1-2.127-1.815c-.207-.44-.29-.96-.397-1.638l-.02-.12-.951-5.985c-.098-.617-.127-.738-.165-.82a.85.85 0 0 0-.532-.453ZM6.123 7.8l.796 5.009c.137.855.184 1.096.267 1.273a1.6 1.6 0 0 0 1.002.855c.188.054.433.063 1.3.063h7.304c.818 0 1.05-.008 1.23-.058a1.6 1.6 0 0 0 .985-.79c.088-.166.146-.39.323-1.188l.634-2.852c.1-.452.168-.754.205-.987.037-.23.034-.328.027-.377a1.1 1.1 0 0 0-.704-.878c-.047-.018-.141-.042-.374-.056A19.229 19.229 0 0 0 18.11 7.8H6.123ZM7 20.15a1.75 1.75 0 1 1 3.5 0 1.75 1.75 0 0 1-3.5 0Zm10.25-1.75a1.75 1.75 0 1 0 0 3.5 1.75 1.75 0 0 0 0-3.5Z" clip-rule="evenodd"/></svg>